<?xml version="1.0" encoding="utf-8"?>
<!-- Generator: Adobe Illustrator 23.0.1, SVG Export Plug-In . SVG Version: 6.00 Build 0)  -->
<svg version="1.1" id="Layer_1" xmlns="http://www.w3.org/2000/svg" xmlns:xlink="http://www.w3.org/1999/xlink" x="0px" y="0px"
	 viewBox="0 0 2798.2 8192" style="enable-background:new 0 0 2798.2 8192;" xml:space="preserve">
<style type="text/css">
	.st0{fill:#05C0A5;}
	.st1{fill:#7458F2;}
</style>
<path class="st0" d="M290.5,2502c50.3-27,69.2-89.7,42.3-140c-27-50.3-89.7-69.2-140-42.2l-803.2,431.4l97.8,182.2L290.5,2502z"/>
<path class="st0" d="M306.6,5762.3c50.3-27,69.2-89.7,42.3-140c-26.9-50.3-89.7-69.2-140-42.2l-803.3,431.4l97.8,182.2L306.6,5762.3
	z"/>
<path class="st1" d="M242.6,2567.3c42.7-22.9,58.7-76.2,35.9-118.8c-22.9-42.6-76.2-58.7-118.8-35.8l-681.8,366.1l83,154.7
	L242.6,2567.3z"/>
<path class="st1" d="M1610.6,66.6c-312.6,167.7-430.1,557.2-262.4,869.8s557.2,430.1,869.8,262l4989.2-2679.6l-607.4-1131.8
	L1610.6,66.6z"/>
<path class="st1" d="M265.9,5827.5c42.7-22.9,58.7-76.2,35.9-118.8c-22.9-42.6-76.2-58.7-118.8-35.8L-498.9,6039l83,154.7
	L265.9,5827.5z"/>
<path class="st0" d="M2435.6,1731.4c-50.3,27-69.2,89.7-42.3,140c27,50.3,89.7,69.2,140,42.2l803.2-431.4l-97.8-182.2L2435.6,1731.4
	z"/>
<path class="st0" d="M2521.6,4278.1c-21.5,11.5-29.5,38.3-18,59.7c11.5,21.5,38.3,29.5,59.7,18l342.4-183.9l-41.7-77.7
	L2521.6,4278.1z"/>
<path class="st1" d="M2514.4,1649.8c-46,24.7-63.4,82.1-38.6,128.1c24.7,46,82.1,63.4,128.1,38.6l734.8-394.6l-89.4-166.6
	L2514.4,1649.8z"/>
<path class="st0" d="M2521.6,6706.4c-21.5,11.5-29.5,38.3-18,59.7c11.5,21.5,38.3,29.5,59.7,18l342.4-183.9l-41.7-77.7
	L2521.6,6706.4z"/>
<path class="st1" d="M2555.2,4243.3c-19.6,10.5-27,35-16.5,54.6c10.5,19.7,35,27,54.6,16.5l313.3-168.3l-38.2-71.1L2555.2,4243.3z"
	/>
<path class="st0" d="M144,971.2c14.1-7.6,19.4-25.1,11.8-39.2c-7.6-14.1-25.1-19.4-39.2-11.8l-224.9,120.8l27.4,51L144,971.2z"/>
<path class="st1" d="M2555.2,6665.4c-19.6,10.5-27,35-16.5,54.6c10.5,19.7,35,27,54.6,16.4l313.3-168.3l-38.2-71.1L2555.2,6665.4z"
	/>
<path class="st1" d="M139.8,1000.4c12-6.4,16.5-21.4,10-33.3c-6.4-12-21.4-16.5-33.3-10l-191,102.5l23.2,43.3L139.8,1000.4z"/>
</svg>
