<?xml version="1.0" encoding="utf-8"?>
<!-- Generator: Adobe Illustrator 23.0.1, SVG Export Plug-In . SVG Version: 6.00 Build 0)  -->
<svg version="1.1" id="Layer_1" xmlns="http://www.w3.org/2000/svg" xmlns:xlink="http://www.w3.org/1999/xlink" x="0px" y="0px"
	 viewBox="0 0 2798.2 3824.2" style="enable-background:new 0 0 2798.2 3824.2;" xml:space="preserve">
<style type="text/css">
	.st0{fill:#15FFD2;}
	.st1{fill:#06EFC8;}
	.st2{fill:#05C0A5;}
	.st3{fill:#07E8C2;}
</style>
<path class="st0" d="M1295.8,512.4c-133.3,71.5-183.4,237.6-111.9,370.9s237.6,183.4,370.9,111.7L3682.2-147.5l-259-482.6
	L1295.8,512.4z"/>
<path class="st1" d="M105.5,2026.4c47.8-25.6,65.7-85.2,40.1-132.9s-85.2-65.7-132.9-40l-762.6,409.5l92.8,173L105.5,2026.4z"/>
<path class="st2" d="M159.1,1953.4c56.3-30.2,77.4-100.3,47.3-156.6s-100.3-77.4-156.6-47.2l-898.4,482.5l109.4,203.8L159.1,1953.4z
	"/>
<path class="st3" d="M1279.8,465.2c-133.3,71.5-183.4,237.6-111.9,370.9s237.6,183.4,370.9,111.7L3666.2-194.7l-259-482.6
	L1279.8,465.2z"/>
<path class="st2" d="M1269.8,410.8c-133.3,71.5-183.4,237.6-111.9,370.9s237.6,183.4,370.9,111.7L3656.2-249.2l-259-482.6
	L1269.8,410.8z"/>
<path class="st1" d="M2646.6,2712.7c-51.5,27.6-70.9,91.8-43.2,143.3c27.6,51.5,91.8,70.9,143.3,43.2l821.9-441.4l-100-186.4
	L2646.6,2712.7z"/>
<path class="st0" d="M173.3,1042c13.4-7.2,18.4-23.9,11.2-37.2c-7.2-13.4-23.9-18.4-37.2-11.2l-213.6,114.7l26,48.4L173.3,1042z"/>
<path class="st2" d="M2558.5,2804c-56.3,30.2-77.4,100.3-47.3,156.6c30.2,56.3,100.3,77.4,156.6,47.2l898.4-482.5l-109.4-203.8
	L2558.5,2804z"/>
<path class="st3" d="M110.8,1031c13.4-7.2,18.4-23.9,11.2-37.2c-7.2-13.4-23.9-18.4-37.2-11.2l-213.6,114.7l26,48.4L110.8,1031z"/>
<path class="st2" d="M153.5,1036.4c15.8-8.5,21.7-28.1,13.2-43.9s-28.1-21.7-43.9-13.2l-251.6,135.1l30.6,57.1L153.5,1036.4z"/>
</svg>
