<?xml version="1.0" encoding="utf-8"?>
<!-- Generator: Adobe Illustrator 23.0.1, SVG Export Plug-In . SVG Version: 6.00 Build 0)  -->
<svg version="1.1" id="Layer_1" xmlns="http://www.w3.org/2000/svg" xmlns:xlink="http://www.w3.org/1999/xlink" x="0px" y="0px"
	 viewBox="0 0 185.2 144" style="enable-background:new 0 0 185.2 144;" xml:space="preserve">
<style type="text/css">
	.st0{fill:#18286C;}
	.st1{fill:#B7464C;}
	.st2{fill:#22306B;}
	.st3{fill:#5577FF;}
	.st4{fill:#1C295C;}
	.st5{fill:#2841A6;}
	.st6{fill:#0C1740;}
	.st7{opacity:0.4511;fill:#22306B;enable-background:new    ;}
	.st8{opacity:0.45;fill:#02BAD3;enable-background:new    ;}
	.st9{fill:#1896A4;}
	.st10{opacity:0.5;fill:#0C4180;enable-background:new    ;}
</style>
<g id="Group-8" transform="translate(93.000000, 83.000000) scale(-1, 1) translate(-93.000000, -83.000000) translate(23.000000, 29.000000)">
	<path id="Path-53" class="st0" d="M21.2,63.7c-9.7-6.4-24-4.2-25.1-5c-1.1-0.7-3.9-3.6-3.3-3.6c6.3-1.7,22-2.4,47-2.3
		C34,64.4,27.7,68,21.2,63.7z"/>
	<path id="Path-38" class="st1" d="M5.2,31.7l6.5,3.5c-2.9,0.7-5.8,1.5-8.6,2.5c-2.8,1-4.8,1.1-6.1,0.3l3.4-3.2L5.2,31.7z"/>
	<path id="Path-52" class="st0" d="M77.6,80.1l10,8.6c12.5,17.1,18,25.5,16.3,25.3c-2.4-0.4-5.4-1-5.4-1c-2-6.6-8.1-11-14-15.6
		c-3.7-2.9-9.6-9.2-17.8-18.8L77.6,80.1z"/>
	<path id="Path-54" class="st2" d="M25.4,10c0,1.3-0.3,3-0.9,5.2c6.1,2.3,8.9,2.2,8.4-0.3c-0.4-2.6-3.3-6.1-8.6-10.7
		C25,6.8,25.3,8.7,25.4,10z"/>
	<path id="Path-51" class="st3" d="M100.4,88.5c-3.1-18.6-6.9-22.8-6.9-22.8c17.5-7,18.1-22.2,18.1-22.2
		c-8.6,17.5-26.3,16.2-46.9,7.7C44.1,42.8,43.5,28.7,40.6,17C37.6,5.3,29.3,2.7,29.3,2.7c1.8,3.6,0,10.4,0,10.4
		c-8.9-1.6-12.9,4.9-16.5,7.1C10.5,21.6,6,21.9,3.1,22c-1.8,0.1-3.1,0-3.1,0.3c-0.6,3.6-0.8,5.5,2.5,10.9c3.3,5.4,9.6,3.8,13.2,4.4
		c2,0.4,6.8,5.8,6.7,14.4C22.3,63.3,5.7,60.4-9.8,65c0.5,1.2,1.5,2,3.2,2.3c10.3,0.5,18.1,1.1,23.2,1.7c15.5,2,26.9,5.7,34.3,8.4
		c9,3.3,21.8,7.6,34.1,18.2c12.3,10.5,31.6,18.9,32.2,19c0.7,0.1,2.5,0.2,5.6,0.4C109,104.4,101.6,95.6,100.4,88.5z"/>
	<path id="Path-55" class="st2" d="M2.5,21.6c-1.5,0-2.1-0.9-2.8,0.1c-0.4,0.5-0.5,2.7-0.2,4.6c0.3,1.8,1,3.4,1.2,3.3
		c2.4-1.1,4.1-3.9,5.3-8.3C4.7,21.5,3.5,21.6,2.5,21.6z"/>
	<polygon id="Oval_27_" class="st4" points="9.5,28.8 9.5,28.8 9.5,28.8 9.5,28.8 	"/>
	<polygon id="Oval-Copy-3" class="st4" points="12,31.2 12,31.2 12,31.2 12,31.2 	"/>
	<polygon id="Oval-Copy-4_1_" class="st4" points="8.6,31 8.6,31 8.6,31 8.6,31 	"/>
	<path id="Path-56" class="st5" d="M24.9,12.9c-1.1,0.2-2.6,0.6-4.5,1.4c-1.5,1.1-2.6,1.8-3.2,2.3c-2.8,2.2-4.7,3.6-5.9,4.3
		c2.9,1.9,0,0.2,4.4,4.2c4.4,4,10.9,3,13.5-3.5c1.7-4.3,1.7-7.2,0-8.7C27.4,12.7,26,12.7,24.9,12.9z"/>
	<polygon id="Oval_28_" class="st6" points="20.8,19.8 20.8,19.8 20.8,19.8 20.8,19.8 	"/>
</g>
<g id="Group-9_1_" transform="translate(39.500000, 39.500000) scale(-1, 1) translate(-39.500000, -39.500000) translate(0.000000, 0.000000)">
	<polygon id="Oval_29_" class="st7" points="-67.3,39.1 -67.3,39.1 -67.3,39.1 -67.3,39.1 	"/>
	<path id="Path" class="st8" d="M-44.9,14.5c-2.9-1.7-15-7.7-26-6.6c-9.3,1-17.6,8.6-20.9,12.1c-2.3,2.5-5.9,7.8-7.3,13.4
		c-2.9,11.5-2.5,24.9-3.6,21.9c-9.6-26,2.1-40.8,13.1-48.5C-66.9-8.8-41.8,5.1-33.2,20c1.3,2.2,2.6,5.9,4.1,11.1
		C-36.1,22.1-41.4,16.6-44.9,14.5z"/>
</g>
<g id="Group-23_1_" transform="translate(69.000000, 47.105927)">
	<path id="Path-60" class="st0" d="M48.4,24.8L48,22.8l-13.8-4.2L4.6,19.4l-40.1,10.4C-67.3,43-68.7,41.9-67.3,43
		c10.6-4.3,19.5-1.8,26.9,7.3c22.2-13.5,36.7-20.8,43.4-22C13,26.5,18.2,32,32.1,29.5C41.3,27.9,46.8,26.3,48.4,24.8L48.4,24.8z"/>
	<path id="Path-59" class="st9" d="M48.1,23.3C33,26,20.7,26.1,11,23.6c-14.5-3.7-56.7,17.7-73.7,19.3c-17.1,1.6,5.6-5.9,10.2-13.4
		c4.6-7.5,2.7-8.6,12.7-7.2c9.9,1.4,23.9,0.8,39.4-6.9c10.3-5.1,27-3.2,50,5.8L48.1,23.3z"/>
	<circle id="Oval_30_" class="st0" cx="49.8" cy="23" r="3"/>
	<path id="Path-61" class="st10" d="M33.4,19.8c-0.5-1-0.3-1.6,0.5-1.6c0.8,0,5.2,1.1,13.1,3.3L33.4,19.8z"/>
	<path id="Path-61-Copy" class="st10" d="M37.1,23c-1.8-0.5-2.3-0.9-1.5-1.1c0.8-0.2,4.6-0.2,11.3,0L37.1,23z"/>
</g>
</svg>
