<?xml version="1.0" encoding="utf-8"?>
<!-- Generator: Adobe Illustrator 23.0.1, SVG Export Plug-In . SVG Version: 6.00 Build 0)  -->
<svg version="1.1" id="Layer_1" xmlns="http://www.w3.org/2000/svg" xmlns:xlink="http://www.w3.org/1999/xlink" x="0px" y="0px"
	 viewBox="0 0 316.7 389.4" style="enable-background:new 0 0 316.7 389.4;" xml:space="preserve">
<style type="text/css">
	.st0{fill:#E1E5EF;}
	.st1{fill:url(#Path-8_1_);}
	.st2{fill:url(#Path-16_1_);}
	.st3{fill:#FFFFFF;}
	.st4{fill:#A8AEC0;}
	.st5{fill:#D1D5E3;}
	.st6{fill:none;stroke:#1872A4;stroke-width:5;stroke-linecap:round;}
	.st7{fill:#1896A4;}
	.st8{fill:#00C0A5;}
	.st9{fill:#161440;}
	.st10{fill:#323166;}
	.st11{opacity:0.3;fill:#FFFFFF;enable-background:new    ;}
	.st12{fill:url(#Path-37_1_);}
	.st13{fill:url(#Path-35_1_);}
	.st14{fill:#F9F9F9;}
	.st15{fill:url(#Path-2_6_);}
	.st16{fill:url(#Path-2_7_);}
	.st17{fill:none;stroke:#FFFFFF;stroke-width:0.6;stroke-linecap:round;}
	.st18{fill:none;stroke:#FFFFFF;stroke-width:0.5;stroke-linecap:round;}
	.st19{fill:none;stroke:#B2C1DD;stroke-width:15;stroke-linecap:round;}
	.st20{fill:url(#Path-14_2_);}
	.st21{fill:url(#Path-14_3_);}
	.st22{fill:#B3BED7;}
	.st23{fill:url(#Path-30_1_);}
	.st24{fill:url(#Path-19_1_);}
	.st25{fill:#18BBD0;}
	.st26{fill:none;stroke:#27D6ED;stroke-width:0.5;}
	.st27{fill:#27D6ED;}
</style>
<path id="Path-2_1_" class="st0" d="M58.6,80.7c-8.1,1.9-19.9,11.8-35.6,30c-8.6,10-31.8,13.5-19.4,67.8c0.3,1.3,1.5,2.4,3.5,3.3
	c9.6-2.3,15.3-3.4,17.3-3.4c7,0-0.2-20.3,7.1-27.9c7.3-7.7,25.4-21,33.9-9.1c8.5,11.9,90.5,10.6,94.3-6.3c3.8-17,30.3,4.1,47.1,0
	c21.6-5.3,39.9-17.9,41.6-19.3c6.6-5.2-5.7-19.9-5.7-19.9s-24,10.7-38.6,6.5c-17.5-4.9-28.4-24.7-44.4-31.8
	c-5.1-2.3-10.7-4.2-17-5.5C125.2,61.4,97.2,66.6,58.6,80.7z"/>
<linearGradient id="Path-8_1_" gradientUnits="userSpaceOnUse" x1="-3662.3655" y1="558.6696" x2="-3662.2825" y2="558.8303" gradientTransform="matrix(98.5338 17.3742 -8.0658 45.7437 365577.2188 38192.1797)">
	<stop  offset="0" style="stop-color:#DCE1F1;stop-opacity:0"/>
	<stop  offset="1" style="stop-color:#6075A8;stop-opacity:0.4"/>
</linearGradient>
<path id="Path-8" class="st1" d="M156.8,107.7c19.9,9.6,36.3,14.4,48.9,14.4c19,0,45.6-12.9,46-15.3c0,0,1.4,2,6.8,0
	c-3.4,3.2-7.7,6.1-10.3,9c-1.5,1.6-19.2,11.4-23.4,13.1c-11,4.5-19.1,7.6-26.2,6.6c-0.9-0.1-1.9-0.2-2.8-0.4
	c-2.2-0.5-4.2-0.8-5.7-1.2c-11.6-3.5-20.9-6.8-25.8-4.8c-1.8,0.7-4.3,3.1-7.3,7.1L156.8,107.7z"/>
<linearGradient id="Path-16_1_" gradientUnits="userSpaceOnUse" x1="-3664.6807" y1="557.6515" x2="-3664.1995" y2="558.2406" gradientTransform="matrix(43.2943 0 0 49.6764 158686.125 -27565.9004)">
	<stop  offset="0" style="stop-color:#DCE1F1;stop-opacity:0"/>
	<stop  offset="1" style="stop-color:#6075A8"/>
</linearGradient>
<path id="Path-16" class="st2" d="M56.5,128.2c-23.8,2.1-36.6,8-38.4,17.7c-1.8,9.7-1.9,19.3-0.5,28.8c4.7-0.1,7.5,0.8,8.4,2.9
	c0.6,1.3,1.8-1.6,1.7-6.4c-0.1-2.3,0-4.2,0-6.1c0.2-5.4,0.7-9.4,1.6-11.3c0.6-1.2,1.2-2.3,2.3-3.5c5.9-6,16.8-13.4,21.4-12.6
	C61,137.5,62.1,134.3,56.5,128.2z"/>
<path id="Combined-Shape" class="st3" d="M48.8,186.2l-2-0.1c3.1-10.6,4.6-22.8,4.6-36.5c0-4.4-0.4-9.5-1.2-15.3
	c-3.7-27,14.1-52.3,40.7-57.9l8.3-1.8c28.1-6,55.7,12,61.7,40.1c0.8,3.6,1.1,7.3,1.1,11c0,4.9-0.1,9.1-0.4,12.7
	c-1,14.4-3.8,30.5-8.5,48.5c8.6,39.8,13.7,65.2,12.9,96.2c-1.2,46.8-4.7,67.8-5.4,79c-0.7,11.2,4.5,10.4,3.3,17.7
	c-1.3,7.3-13.6,6.1-18.7,6.1c-5.1,0-11-1-12.7-6.1s3.7-4.9,2.2-14.2c-1.5-9.3-10.4-47.2-19.2-84.9c-5.1-22-11-34.7-14.4-39.4
	c-7.4-10.1-45.9-13-33.7,5.8c1.5,2.3,8.7,10.3,15.7,16c4.1,3.3,10.4,4.1,11.3,8.7c1.7,9.1-3.3,25.5-9.3,31.4s-13.7,5.6-15.7,0.2
	c-1.7-4.7,1.2-10.6-5-15.9c-6.6-5.7-26.2-22-35.3-28.5C20,252.5,12,247.4,12,230.9s30-39.3,34.5-44.8L48.8,186.2L48.8,186.2z"/>
<g id="head" transform="translate(28.029480, 0.404471)">
	
		<g id="Group-3" transform="translate(65.344257, 72.586060) rotate(-12.000000) translate(-65.344257, -72.586060) translate(8.844257, 26.586060)">
		<path id="Path-4" class="st4" d="M19.5,45.4c-1.7,1.7-2.1,3.4-1.1,5c0.7,1.1,3.1,3,4.6,3.9c3.1,1.9,8,4.1,13.9,5.8
			c14.8,4.2,36.4,5.4,54.5-7.8c1.7-1.4,2.1-3.6,1.3-6.8l-34.5,9.1L19.5,45.4z"/>
		<path id="Rectangle-2" class="st5" d="M18.2,47.2c5.7,4.9,11.6,8.1,17.8,9.6c9.3,2.3,20.2,2.8,26.9,2.3c12.8-1,22.9-5,30.1-11.8
			c0.1,0.6,0.1,1,0.1,1.2C93,48.8,82.9,58.7,62.9,60.4c-5.4,0.4-16.1,0.2-27.1-2.5c-9.9-2.4-18.1-9.5-17.9-10
			C18,47.5,18.1,47.3,18.2,47.2z"/>
		<path id="Path-9" class="st6" d="M14.7,42.6C1.5,36.6-6.1,28.8-7.9,19.1c-2.8-14.6,8.3-19,11.1-19"/>
		<path id="Oval_18_" class="st3" d="M54.8,56.8c26.6,0,48.5-9.7,48.5-36.4c0-26.7-21.8-48.2-48.3-48.2C28.5-27.8,7.2-6.3,7.2,20.4
			C7.2,47.1,28.3,56.8,54.8,56.8z"/>
	</g>
	
		<g id="Group-14" transform="translate(25.553283, 50.362245) rotate(10.000000) translate(-25.553283, -50.362245) translate(17.553283, 22.862245)">
		<path id="Oval_19_" class="st7" d="M-6.4,32c4,0.1,0.3-7.3,0.5-14.5C-5.6,10.3-1.4,4-5.4,3.9c-4-0.1-10,6.8-10.3,14
			C-15.9,25.1-10.4,31.8-6.4,32z"/>
		<path id="Oval-Copy-2" class="st8" d="M-7.4,25.6c2.6-0.7,1.1-4.3,1.8-10.8S-1.7,3.6-5.2,3.3c-3.6-0.4-8.2,5.3-8.8,10.8
			C-14.5,19.6-10,26.3-7.4,25.6z"/>
	</g>
	<g id="Group-21" transform="translate(25.484514, 24.335493)">
		
			<g id="Group-3_1_" transform="translate(46.904832, 46.137872) rotate(-12.000000) translate(-46.904832, -46.137872) translate(7.404832, 8.137872)">
			<path id="Oval_20_" class="st5" d="M30.4,47.6c20.8,0,39.2-10.8,39.2-35.4C69.6-12.4,50.7-28,29.9-28C9.1-28-9-12.2-9,12.4
				S9.6,47.6,30.4,47.6z"/>
			<path id="Oval_21_" class="st9" d="M30.6,45.9c20.8,0,39.2-10.9,39.2-35.7c0-24.8-20.5-36.3-41.3-36.3
				C7.7-26.1-8.9-14.4-8.9,10.4C-8.9,35.2,9.8,45.9,30.6,45.9z"/>
			<path id="Oval_22_" class="st10" d="M66.5,13.8c-0.1-3.4-2.7-0.8-4.9,1.6c-3.3,3.4-6.9,8.5-19.4,14.4
				c-14.5,6.9-27.8,1.9-33.9,1.7c-2.3-0.1-4.2,1.3-3.2,3.7c1,2.5,6.7,4.5,14.1,5.9c0,0,15.8,3.4,28.5-1.7
				C59.3,34.8,66.6,22.5,66.5,13.8z"/>
			
				<ellipse id="Oval_23_" transform="matrix(-1 8.720422e-05 -8.720422e-05 -1 7.5493 -4.8634)" class="st10" cx="3.8" cy="-2.4" rx="2.6" ry="2.6"/>
			
				<ellipse id="Oval_24_" transform="matrix(-1 5.643086e-06 -5.643086e-06 -1 27.2685 -18.7638)" class="st10" cx="13.6" cy="-9.4" rx="6.1" ry="6.1"/>
		</g>
		<path id="Path-9_1_" class="st6" d="M75.7-7.8c14.6-1.5,20.1,5.6,16.2,21.4c-5.7,23.7-14.1,25.2-14.1,25.2"/>
	</g>
	
		<g id="Group-7" transform="translate(104.790055, 31.360229) rotate(-16.000000) translate(-104.790055, -31.360229) translate(91.790055, 2.860229)">
		<path id="Oval-Copy-2_1_" class="st7" d="M9.8,27.1c-3.5,0.9-1.9-7-3.7-14c-1.9-7-7-12.2-3.5-13.2C6.1-1,12.8,4.6,14.7,11.5
			C16.5,18.6,13.3,26.2,9.8,27.1z"/>
		<path id="Oval-Copy-2_2_" class="st8" d="M10.2,21.7c-2.6-0.2-2-4-4-10.2C4.1,5.3,0,1.4,3.4,0.3S12.5,3.8,14.2,9
			C15.9,14.3,12.8,21.9,10.2,21.7z"/>
	</g>
</g>
<path id="Path-39" class="st11" d="M116.6,6.9c2.3-0.8,5-0.2,8.2,1.9c4.7,3.1,6.5,8,5.3,14.6c-0.1-5.8-2-10.1-5.6-12.9
	C121.6,8.2,118.9,7,116.6,6.9z"/>
<path id="Path-3" class="st0" d="M73.5,254c1.4,1,2.9,3.5,9.9,9.2c4.1,3.3,10.4,4.1,11.3,8.7c1.7,9.1-3.3,25.5-9.3,31.4
	c-6,5.9-13.7,5.6-15.7,0.2c-1.7-4.7,1.2-10.6-5-15.9c-6.6-5.7-11-9.3-16.4-13.7C64.9,276.6,73,270.4,73.5,254z"/>
<linearGradient id="Path-37_1_" gradientUnits="userSpaceOnUse" x1="-3666.0667" y1="556.6736" x2="-3666.0667" y2="557.5028" gradientTransform="matrix(26.5744 0 0 59.0334 97505.375 -32603.6445)">
	<stop  offset="0" style="stop-color:#C6CFE4;stop-opacity:0"/>
	<stop  offset="1" style="stop-color:#94A1C5"/>
</linearGradient>
<path id="Path-37" class="st12" d="M68.5,248.6c7.1,15.9,11.3,26.6,12.4,32.2c2.3,11.6-1.4,19.2-2.8,20.7c-3.9,4.4-9.2,0.9-7.5,3.5
	c0.8,1.3,2.4,2,4,2.4c1.7,0.3,6.3,0.6,10.7-4.1c4.2-4.4,5.9-8.7,7.4-14.2c3.4-12.1,3.8-18.6-1.7-21.8c-0.6-0.4-1.8-1-3.4-1.8
	c-2-0.7-4.5-2.6-7.6-5.5C76.7,257.2,73,253.4,68.5,248.6z"/>
<linearGradient id="Path-35_1_" gradientUnits="userSpaceOnUse" x1="-3664.6987" y1="570.5857" x2="-3665.5076" y2="570.4515" gradientTransform="matrix(36.2518 0 0 16.4279 132943.4844 -9139.708)">
	<stop  offset="0" style="stop-color:#D8DFF0;stop-opacity:9.370000e-02"/>
	<stop  offset="1" style="stop-color:#AFBCDC"/>
</linearGradient>
<path id="Path-35" class="st13" d="M65.6,238.4c-0.5-4.2,0.7-7.7,3.4-10.3c3.1-3,17.9-5.1,26.1,3.9c3.9,4.3,6.1,7.6,6.6,10
	c-2.3-2.9-4.7-4.7-7.1-5.4c-5.4-1.7-10.1-2.8-14.3-3C72.6,233.3,67.7,234.9,65.6,238.4z"/>
<g id="Group-11" transform="translate(140.207335, 343.667527)">
	<path id="Path-3_1_" class="st0" d="M23.9-16.9c-0.3,4.4-2.7,22.8-2.7,33c0,7.4,12.8,18.7,3.9,24.3S8.9,45.5,3.5,45.5
		C-1.8,45.5-7,41.1-8,35.3c-0.9-5.4,3-10,2.3-14.3c-0.5-2.9-7-31.8-8.6-39.2c-1.1-5,8.5-5.1,18-5.1C11.9-23.3,24.1-20.9,23.9-16.9z"
		/>
	<path id="Path-27" class="st8" d="M-14.7-20.6c6.8-3.7,13.6-5.2,20.5-4.8c6.9,0.5,13,2.2,18.4,5.1l-0.3,3.9
		c-6.3-3.3-12.3-5.2-18.1-5.6c-5.7-0.5-12.3,1.1-19.7,4.6L-14.7-20.6z"/>
</g>
<path id="Path-32" class="st7" d="M157.8,320.6c0.4,1.4,0.3,2.6-0.1,3.9c1.3,0.6,2.4,1,3.1,1.3c0.7,0.3,1.8,0.8,3.3,1.5l0.3-3.9
	c-1.4-0.7-2.4-1.2-3.2-1.5C160,321.3,158.2,320.8,157.8,320.6z"/>
<g id="Group-15" transform="translate(277.043491, 128.664925) rotate(38.000000) translate(-277.043491, -128.664925) translate(252.043491, 106.664925)">
	<g id="Group-16" transform="translate(0.404428, 0.215284)">
		<path id="Path-2_2_" class="st14" d="M-4,25.8c3.7-5.1,17.1-28.7,17.1-33.4c0-1.9-3-3.7-5.4-0.4C6.2-6,4.3-4,2.6-2.2
			c-2.9,3.1-6.3,7.9-7.7,6.1C-6.5,2,1.1-3.3,0-4.7c-1.1-1.4-2-1.8-5.7,1.6s-13.1,8.7-16.7,20.3c-0.3,1.1,2.4,6.1,7.9,7.9
			C-11.2,26.2-7.7,30.9-4,25.8z"/>
		
			<linearGradient id="Path-2_6_" gradientUnits="userSpaceOnUse" x1="-3320.7253" y1="1874.8932" x2="-3320.2329" y2="1875.2852" gradientTransform="matrix(31.696 -9.0887 8.2204 28.6679 89835.3359 -83919.625)">
			<stop  offset="0" style="stop-color:#D8DFF0;stop-opacity:9.370000e-02"/>
			<stop  offset="1" style="stop-color:#AFBCDC"/>
		</linearGradient>
		<path id="Path-2_3_" class="st15" d="M6.8,10.5c4.7-8,6.6-14.6,6.4-17.2c-0.1-2-1-2.7-1.5-2.9c-0.5-0.2-0.5-0.2-1.3,1
			S7.3,3.2,0.7,10.9c-6.9,7.9-12.6,14-12.6,14c2.2,0.8,5.6,1.7,7.8,0.8C-3.8,25.5,4.5,14.5,6.8,10.5z"/>
		<path id="Path-17" class="st8" d="M-22.4,16.9c2.4,2.3,4.8,3.9,7.1,5c6.5,3,11.4,3.7,11.4,3.7s-0.5,0.8-1.3,2.3
			c-0.2,0.4-0.4,0.9-0.7,1.6c-5.4-1.8-9.1-3.2-11.1-4.3c-2-1.1-4.4-2.7-7.4-4.9L-22.4,16.9z"/>
	</g>
</g>
<path id="Path-33" class="st7" d="M244.4,109.9c1.3-0.3,2.5-0.8,3.6-1.5c0,0,1.4,1.9,4.3,5.7c-1,0.4-1.7,0.7-2.1,0.9
	c-0.5,0.2-1.1,0.5-1.9,1c-0.8-1.3-1.5-2.2-1.9-2.9C245.9,112.3,245.3,111.3,244.4,109.9z"/>
<g id="Group-4" transform="translate(34.137380, 208.925433) scale(-1, 1) rotate(-55.000000) translate(-34.137380, -208.925433) translate(17.637380, 191.925433)">
	<path id="Path-2_4_" class="st3" d="M52.2,3.9c-1.6-0.8-2.9-1-4.4-0.7c-1.8,0.4-6.5-2.7-8.7-2.1c-5.1,1.3-5.7,3.2-6.7,6.6
		c-2.2,7.5,4.2,18.2,5.6,19.8c3.3,3.7,12.2-0.3,21-2.8C63.2,17.9,58.3,6.8,52.2,3.9z"/>
</g>
<g id="Group-4_1_" transform="translate(41.426630, 206.863091) scale(-1, 1) rotate(-55.000000) translate(-41.426630, -206.863091) translate(27.426630, 197.363091)">
	
		<linearGradient id="Path-2_7_" gradientUnits="userSpaceOnUse" x1="-1045.9381" y1="-242.9317" x2="-1045.0972" y2="-242.6316" gradientTransform="matrix(-16.7368 12.245 -17.632 -6.6057 -21745.3223 11209.4053)">
		<stop  offset="0" style="stop-color:#D8DFF0;stop-opacity:9.370000e-02"/>
		<stop  offset="1" style="stop-color:#AFBCDC"/>
	</linearGradient>
	<path id="Path-2_5_" class="st16" d="M52.5,4.8c-1.6-0.8-3.2-2.3-4.7-1.9C46,3.3,43,0.2,39.1,0.8c-5.2,0.8-5.7,3.2-6.6,6.6
		c-0.1,0.3-1.1,4.8,0.5,5.2c5.7,1.6,20.7-0.4,23.7-3C57.9,8.4,53.8,5.4,52.5,4.8z"/>
</g>
<g id="Group-25" transform="translate(17.093858, 194.238384)">
	<path id="Path-36" class="st8" d="M-14.3-19.4c2.2-3.1,5.8-5,11-5.6c5.1-0.6,9.8,0.1,14,2.3l-0.4,3.5C6.9-22,2.4-23-3.3-22.1
		c-5.7,0.9-9.1,2.9-10.2,6.3L-14.3-19.4z"/>
	<path id="Path-23" class="st7" d="M-0.1-25.2c0.3,1,0.3,1.9,0,2.8c0,0,3.9,0.1,5.8,0.8c1.3,0.5,2.8,1.3,4.7,2.4
		c0.1-0.7,0.2-1.3,0.2-1.7s0.1-1,0.1-1.8c-1.2-1-2.9-1.7-5-2.1C3.6-25.2,1.6-25.4-0.1-25.2z"/>
</g>
<path id="Path-10" class="st7" d="M94.2,111.4c-12,0-21.8,9.8-21.8,21.9s9.8,21.9,21.8,21.9s21.8-9.8,21.8-21.9
	C116,121.2,106.3,111.4,94.2,111.4 M93.5,148c-7.1,0-13.2-6-13.2-13.5c0-1.7,0.3-3.8,0.9-5.3l5.7,2.5c0,0.1,0,0.2-0.1,0.3
	c-0.2,0.6-0.3,1.2-0.3,1.8c0,0.1,0,0.2,0,0.4v0.1c0,2.2,1,4.3,2.7,5.7s3.8,1.9,5.9,1.4l3.2,5.7C96.8,147.7,95.2,148,93.5,148
	 M106.7,140.3l-15.2-6.7h9.7c-0.3-3.7-4-6.7-7.4-6.7c-0.8,0-1.5,0.1-2.3,0.4l-3.4-6c1.8-0.8,3.7-1.3,5.6-1.3
	c7.5,0,13.9,6.5,13.9,14.3C107.7,136.4,107.5,138.5,106.7,140.3"/>
<g id="Group" transform="translate(37.971765, 126.146453)">
	<path id="Path-11" class="st10" d="M-13.8-17c-0.9,3.2-0.4,6,1.5,8.6c0,0,0.2,0.2,0.4,0c0.6-0.4,2.9-2.5,7.2-5.5
		c0.1-0.1,0.1-0.2,0.1-0.4c-3.1-3.2-3.4-7-1.1-11.3c-0.4,0.3-1.7,1.6-3.9,4C-10.5-20.8-11.9-19.3-13.8-17z"/>
	<g id="Group-12" transform="translate(1.899318, 3.818042)">
		<path id="Path-18-Copy-2" class="st17" d="M-13.7-23c-0.5,0.6-0.8,1.1-0.8,1.5s0,0.8,0.1,1.2"/>
		<path id="Path-18-Copy-3" class="st17" d="M-12.3-24.4c-0.5,0.6-0.8,1.1-0.8,1.5s0,0.8,0.1,1.2"/>
		<path id="Path-18-Copy-4" class="st17" d="M-11-25.7c-0.5,0.6-0.8,1.1-0.8,1.5s0,0.8,0.1,1.2"/>
	</g>
	<g id="Group-13" transform="translate(1.899318, 7.636085)">
		<path id="Path-18" class="st18" d="M-10.9-25.4l-2.8,2.8c-0.3,0.3-0.5,0.4-0.4,0.4c1.5-0.1,3.3-0.7,3.9-0.8"/>
		<path id="Path-18_1_" class="st18" d="M-10.5-24.1l-2.6,2.8c-0.3,0.3-0.5,0.4-0.4,0.4c1.5-0.1,3.2-0.4,4-0.4"/>
	</g>
</g>
<path id="Oval_25_" class="st10" d="M63.3,106.1c4.1,0,7.5-3.4,7.5-7.5s-3.3-7.5-7.5-7.5s-7.5,3.4-7.5,7.5S59.1,106.1,63.3,106.1z"
	/>
<ellipse id="Oval-Copy-4" class="st10" cx="121.2" cy="91" rx="7.5" ry="7.5"/>
<g id="Group-5" transform="translate(43.190976, 98.114567)">
	<path id="Path-12" class="st19" d="M19.1-1.6C5.5-18.8-3.8-26.8-8.9-25.4c-7.6,2,3.6,17.7,5.4,19.4"/>
	
		<linearGradient id="Path-14_2_" gradientUnits="userSpaceOnUse" x1="-3840.937" y1="567.6846" x2="-3840.6169" y2="567.4413" gradientTransform="matrix(18.3243 0 0 19.396 70373.875 -11022.4326)">
		<stop  offset="0" style="stop-color:#5452D7;stop-opacity:0"/>
		<stop  offset="1" style="stop-color:#7E7DA8"/>
	</linearGradient>
	<path id="Path-14" class="st20" d="M-5.5-18.8c-8.5-5.4-10.8,0.4-8.3,4.4C-8.9-6.9-5.5-1.6-5.5-1.6c0.8-0.7,3.8-3.1,9.1-7.2
		c-0.2,0.4-0.9-0.3-1.9-1.8C0.1-13-5.1-18-5.5-18.8z"/>
</g>
<g id="Group-5-Copy" transform="translate(153.605986, 93.385555) scale(-1, 1) rotate(29.000000) translate(-153.605986, -93.385555) translate(127.605986, 77.385555)">
	<path id="Path-12_1_" class="st19" d="M51.6-3.6C29-23.1,14.3-31.5,7.5-28.8c-10.2,4.1,4.1,20.9,5.9,22.5"/>
	
		<linearGradient id="Path-14_3_" gradientUnits="userSpaceOnUse" x1="581.0682" y1="153.9982" x2="581.4028" y2="153.71" gradientTransform="matrix(-7.8588 17.9742 -16.1128 -8.7666 7056.6416 -9108.1445)">
		<stop  offset="0" style="stop-color:#5452D7;stop-opacity:0"/>
		<stop  offset="1" style="stop-color:#7E7D9D"/>
	</linearGradient>
	<path id="Path-14_1_" class="st21" d="M10.9-22.4c-8.5-1-11.7,1.1-9.4,6.4c3.4,7.9,9.8,13.3,9.8,13.3c0.5-0.4,2.3-2.7,3.5-4.1
		c0.4-0.5,1.7-1.8,3.9-3.9c-1-1-1.7-1.7-2.1-2.2c-1.2-1.5-2.8-3.8-3.1-4.2C12.2-19.6,11.3-21.3,10.9-22.4z"/>
	<path id="Path-15" class="st0" d="M19-11.4C16.3-8.8,14.5-7,13.5-6c-2.8,3.2-4.1,5.2-4.3,5.6c-0.7,1.3,1.1,2,5.6,1.9
		c2.1-0.8,3.7-1.6,4.6-2.6c0.9-0.9,2.1-2.7,3.5-5.4L19-11.4z"/>
</g>
<path id="Path-13" class="st0" d="M35,97.6c2.6-2.9,4.5-4.9,5.5-5.8c3-2.8,4.8-3.8,5.2-3.9c0,0,0.9,1.1,2.8,3.3
	c-3.5,6.5-5.5,9.9-5.8,10.1s-1.9-0.2-4.6-1.3L35,97.6z"/>
<ellipse id="Oval-Copy-6" class="st5" cx="80.7" cy="98.4" rx="1.4" ry="1.4"/>
<ellipse id="Oval-Copy-7" class="st5" cx="91.9" cy="100.4" rx="1.4" ry="1.4"/>
<ellipse id="Oval-Copy-8" class="st5" cx="103.6" cy="96.5" rx="1.4" ry="1.4"/>
<path id="Path-20" class="st3" d="M158.1,165.4c-3,19.5,0.2,46.2,1.8,55.6c1,6.3-8.2,2.9-27.6-10.2l7-35.2
	C151.8,168.8,158.1,165.4,158.1,165.4z"/>
<ellipse id="Oval_26_" transform="matrix(0.9848 -0.1737 0.1737 0.9848 -44.9715 27.7409)" class="st22" cx="136" cy="270.8" rx="11" ry="15"/>
<path id="Oval-Copy" class="st22" d="M30.4,255.3c4-1.5,1.8-7.6-2.1-13c-3.9-5.4-7.4-6.6-11.8-4c-2.5,1.5-2.5,2.4-1.9,4.5
	c0.6,2.3,2.3,5.2,5.1,8C25.1,256,26.5,256.8,30.4,255.3z"/>
<linearGradient id="Path-30_1_" gradientUnits="userSpaceOnUse" x1="-3665.6814" y1="552.5881" x2="-3665.6665" y2="553.6235" gradientTransform="matrix(29.2644 0 0 240.328 107425.2422 -132711.3594)">
	<stop  offset="0" style="stop-color:#D8DFF0;stop-opacity:9.370000e-02"/>
	<stop  offset="1" style="stop-color:#AFBCDC"/>
</linearGradient>
<path id="Path-30" class="st23" d="M140.9,83.1c4.7,16.1,6.5,35.6,5.2,58.4c-2,34.1-10.1,32.6-9.1,47.1c2.5,5.6,10.7,18.9,15.1,40.2
	c4.4,21.4,7.2,20,5.6,91.7c0,0-0.3-0.2,3,1.1c0.7,0.3,1.9,0.9,3.6,1.7c1.5-23.9,2.1-42.6,1.7-56.1c-0.6-20.2-3.7-33.4-6.7-50.6
	c-0.9-5.2-2.5-22.5-2.5-30.3c0-7.2,0.1-13.1,0.9-19.1c0.7-5.1,1.8-10.4,2.7-16.7c0.7-4.8,1.1-10.2,1.5-16.5
	c0.4-4.7,0.5-11.3-0.5-17.1c-0.3-1.8-1.4-8.3-5.4-16C153.4,95.9,148.3,89.9,140.9,83.1z"/>
<path id="Path-22" class="st8" d="M48.6,178.8c15.4,4.8,29.6,7.2,42.6,7.4s35-3.4,65.7-10.8c0,3.2-0.1,4.8-0.1,4.8c0,0.6,0,2,0,4
	c-30.4,7.1-52.3,10.4-65.7,10c-13.4-0.4-28.2-3-44.4-7.9c0.4-1.4,0.7-2.6,1-3.6C48,181.8,48.3,180.4,48.6,178.8z"/>
<path id="Path-31" class="st7" d="M137.7,179.8c0.4,0.9,0.5,2.4,0.2,4.6c-0.2,2.2-0.6,3.6-1,4.2l20.1-4.2v-9L137.7,179.8z"/>
<linearGradient id="Path-19_1_" gradientUnits="userSpaceOnUse" x1="-3665.3896" y1="556.5258" x2="-3665.2615" y2="556.5669" gradientTransform="matrix(32.165 0 0 65.0027 118047.4609 -35818.5977)">
	<stop  offset="0" style="stop-color:#C6CFE4;stop-opacity:0"/>
	<stop  offset="1" style="stop-color:#94A1C5"/>
</linearGradient>
<path id="Path-19" class="st24" d="M157.7,324.4c-0.7,20.4-1.2,31.9-1.5,34.3c-0.5,3.6,7.9,11.8,6.7,17.8
	c-1.4,7.1-4.9,9.1-14.9,10.6c-2.3,0.3-6.1,0-11.6-0.8c1.7,2.1,5,3.2,9.7,3.2c2.7,0,5.6-0.3,7.8-0.7c3.5-0.7,14.7-2.5,14.7-9.7
	s-6.6-14.2-7.1-17.8c-0.2-1.9,0.5-9,1.6-21.5c0.2-2.4,0.5-6.5,0.9-12.3c-1.4-0.7-2.5-1.2-3.2-1.5C160.1,325.4,159,325,157.7,324.4z"
	/>
<path id="Path-5" class="st8" d="M46.6,272.5c7.2,1.5,13.1,0.6,17.9-2.7c4.8-3.3,7.3-9,7.7-17.1l1.3,1.3c0,8.4-2.5,14.3-7.4,17.8
	c-4.9,3.5-10.8,4.2-17.7,2.2L46.6,272.5z"/>
<path id="Path-24" class="st7" d="M73.2,258.8c-0.1-0.6-0.2-1.1-0.4-1.5c-0.2-0.4-0.5-0.7-0.9-1c0.1-0.8,0.2-1.4,0.2-1.8
	s0.1-1.1,0.1-1.9l1.2,1.3c0,0.6,0,1.4,0,2.2C73.4,257.1,73.3,258,73.2,258.8z"/>
<path id="Path-26" class="st11" d="M41.4,25.2c-2.4,1.9-4.1,4.7-5.2,8.3c-1.1,3.6-1.1,7.2,0,10.9c-2.3-3.9-2.9-7.6-1.8-11.1
	C35.6,29.8,37.9,27.1,41.4,25.2z"/>
<g id="Group-27" transform="translate(1003.000000, 222.000000)">
	<g id="Group-Copy">
		<path id="Combined-Shape_1_" class="st25" d="M-732-150.6l-18.3-29.3l18.3,7.2v-0.6l18.3-7.3L-732-150.6z"/>
		<ellipse id="Oval_31_" class="st26" cx="-732" cy="-176.6" rx="45.7" ry="9.3"/>
		<ellipse id="Oval_32_" class="st26" cx="-731.7" cy="-177.3" rx="34" ry="6"/>
		<path id="Combined-Shape_2_" class="st27" d="M-731.7-210.6l18,30.1l-18.3,7.8l-18.3-7.2L-731.7-210.6z"/>
		<circle id="Oval_33_" class="st27" cx="-769.3" cy="-171.3" r="2.3"/>
		<circle id="Oval_34_" class="st27" cx="-705.7" cy="-173.3" r="2"/>
	</g>
</g>
</svg>
