<svg width="601" height="108" viewBox="0 0 601 108" fill="none" xmlns="http://www.w3.org/2000/svg">
<path d="M121.2 30.3C99.4 30.3 82.3999 46.8 82.3999 69C82.3999 91.2 99 107.6 121.2 107.6C143.4 107.6 160.3 90.9 160.3 68.9C160.3 47 143.7 30.3 121.2 30.3ZM121.4 91.6C109 91.6 99.8999 82 99.8999 69C99.8999 55.9 108.8 46.3 121.3 46.3C133.9 46.3 142.9 56.1 142.9 69C142.9 81.9 133.8 91.6 121.4 91.6ZM165.1 47.2H175.9V106.2H193.2V31.8H165.1V47.2ZM38.8 46.3C47.9 46.3 55.1 51.9 57.9 60.3H76.2C72.9 42.5 58.2 30.4 39 30.4C17.2 30.4 0.199951 46.9 0.199951 69.1C0.199951 91.3 16.7999 107.7 39 107.7C57.7999 107.7 72.7999 95.6 76.0999 77.6H57.9C55.3 85.9 48.1 91.7 39 91.7C26.4 91.7 17.5999 82.1 17.5999 69.1C17.5999 55.9 26.3 46.3 38.8 46.3ZM494.2 61.8L481.5 59.9C475.4 59 471.1 57 471.1 52.3C471.1 47.1 476.7 44.5 484.4 44.5C492.8 44.5 498.1 48.1 499.3 54H516C514.1 39 502.6 30.3 484.8 30.3C466.5 30.3 454.3 39.7 454.3 52.9C454.3 65.6 462.2 72.9 478.3 75.2L491 77.1C497.2 78 500.7 80.4 500.7 85C500.7 90.9 494.6 93.3 486.3 93.3C476 93.3 470.3 89.1 469.4 82.8H452.4C454 97.3 465.4 107.5 486.2 107.5C505.1 107.5 517.7 98.9 517.7 84C517.6 70.9 508.5 64 494.2 61.8ZM184.6 1.10001C178.2 1.10001 173.5 5.7 173.5 12C173.5 18.3 178.3 22.9 184.6 22.9C191 22.9 195.7 18.3 195.7 12C195.7 5.7 190.9 1.10001 184.6 1.10001ZM438.8 57.2C438.8 41.1 429 30.3 408.2 30.3C388.6 30.3 377.6 40.2 375.4 55.5H392.6C393.5 49.6 398.1 44.7 407.9 44.7C416.7 44.7 421 48.6 421 53.3C421 59.5 413.1 61.1 403.2 62.1C389.9 63.5 373.5 68.1 373.5 85.4C373.5 98.8 383.5 107.4 399.3 107.4C411.7 107.4 419.5 102.2 423.4 94C424 101.3 429.5 106.1 437.1 106.1H447.2V90.7H438.7L438.8 57.2ZM421.7 75.9C421.7 85.8 413 93.2 402.5 93.2C396 93.2 390.5 90.5 390.5 84.7C390.5 77.4 399.3 75.3 407.4 74.5C415.2 73.8 419.5 72.1 421.7 68.7V75.9ZM329.8 30.3C320.1 30.3 312 34.3 306.3 41.1V0.399994H289V106.1H306V96.3C311.8 103.3 320 107.5 329.8 107.5C350.6 107.5 366.3 91.1 366.3 68.9C366.3 46.7 350.3 30.3 329.8 30.3ZM327.2 91.6C314.8 91.6 305.7 82 305.7 69C305.7 56 314.9 46.3 327.3 46.3C339.9 46.3 348.7 55.9 348.7 69C348.7 82 339.6 91.6 327.2 91.6ZM247.5 30.3C236.2 30.3 228.9 34.9 224.6 41.4V31.8H207.4V106.2H224.7V65.8C224.7 54.4 231.9 46.4 242.6 46.4C252.6 46.4 258.8 53.4 258.8 63.7V106.3H276.1V62.4C276.1 43.6 266.4 30.3 247.5 30.3ZM600.1 66.6C600.1 45.3 584.5 30.3 563.6 30.3C541.4 30.3 525.1 47 525.1 69C525.1 92.2 542.6 107.6 563.9 107.6C581.9 107.6 596.1 97 599.7 81.8H581.7C579.1 88.4 572.8 92.2 564.2 92.2C553.1 92.2 544.7 85.3 542.8 73.2H600.1V66.6ZM543.8 60.8C546.5 50.4 554.3 45.4 563.3 45.4C573.1 45.4 580.6 51 582.4 60.8H543.8Z" fill="#0052FF"/>
</svg>
