<svg width="140" height="26" viewBox="0 0 140 26" fill="none" xmlns="http://www.w3.org/2000/svg">
<path d="M28.238 6.97783C23.1505 6.97783 19.1832 10.8285 19.1832 16.0093C19.1832 21.1902 23.0572 25.0175 28.238 25.0175C33.4189 25.0175 37.3629 21.1202 37.3629 15.986C37.3629 10.8751 33.4889 6.97783 28.238 6.97783ZM28.2847 21.2836C25.3909 21.2836 23.2672 19.0432 23.2672 16.0093C23.2672 12.9522 25.3442 10.7118 28.2614 10.7118C31.2019 10.7118 33.3022 12.9988 33.3022 16.0093C33.3022 19.0198 31.1785 21.2836 28.2847 21.2836ZM38.4831 10.9218H41.0035V24.6908H45.0408V7.32789H38.4831V10.9218ZM9.00817 10.7118C11.1319 10.7118 12.8121 12.0187 13.4656 13.979H17.7363C16.9662 9.82497 13.5356 7.00117 9.05484 7.00117C3.96733 7.00117 0 10.8518 0 16.0327C0 21.2135 3.87398 25.0408 9.05484 25.0408C13.4422 25.0408 16.9428 22.217 17.713 18.0163H13.4656C12.8588 19.9533 11.1785 21.3069 9.05484 21.3069C6.11435 21.3069 4.06068 19.0665 4.06068 16.0327C4.06068 12.9522 6.09102 10.7118 9.00817 10.7118ZM115.286 14.3291L112.322 13.8856C110.898 13.6756 109.895 13.2089 109.895 12.112C109.895 10.8985 111.202 10.2917 112.999 10.2917C114.959 10.2917 116.196 11.1319 116.476 12.5088H120.373C119.93 9.00817 117.246 6.97783 113.092 6.97783C108.821 6.97783 105.974 9.17153 105.974 12.252C105.974 15.2159 107.818 16.9195 111.575 17.4562L114.539 17.8997C115.986 18.1097 116.803 18.6698 116.803 19.7433C116.803 21.1202 115.379 21.6803 113.442 21.6803C111.039 21.6803 109.708 20.7001 109.498 19.2299H105.531C105.904 22.6138 108.565 24.9942 113.419 24.9942C117.83 24.9942 120.77 22.9872 120.77 19.5099C120.747 16.4527 118.623 14.8425 115.286 14.3291ZM43.0338 0.163363C41.5403 0.163363 40.4434 1.23687 40.4434 2.70712C40.4434 4.17736 41.5636 5.25088 43.0338 5.25088C44.5274 5.25088 45.6243 4.17736 45.6243 2.70712C45.6243 1.23687 44.5041 0.163363 43.0338 0.163363ZM102.357 13.2555C102.357 9.49825 100.07 6.97783 95.2159 6.97783C90.6418 6.97783 88.0747 9.28822 87.5613 12.8588H91.5753C91.7853 11.4819 92.8588 10.3384 95.1459 10.3384C97.1995 10.3384 98.203 11.2485 98.203 12.3454C98.203 13.7923 96.3594 14.1657 94.049 14.3991C90.9452 14.7258 87.1179 15.7993 87.1179 19.8366C87.1179 22.9638 89.4516 24.9708 93.1389 24.9708C96.0327 24.9708 97.853 23.7573 98.7631 21.8436C98.9032 23.5473 100.187 24.6674 101.96 24.6674H104.317V21.0735H102.334L102.357 13.2555ZM98.3664 17.6196C98.3664 19.93 96.3361 21.6569 93.8856 21.6569C92.3687 21.6569 91.0852 21.0268 91.0852 19.6733C91.0852 17.9697 93.1389 17.4796 95.0292 17.2929C96.8495 17.1295 97.853 16.7328 98.3664 15.9393V17.6196ZM76.9195 6.97783C74.6558 6.97783 72.7655 7.91132 71.4352 9.49825V0H67.3979V24.6674H71.3652V22.3804C72.7188 24.014 74.6324 24.9942 76.9195 24.9942C81.7736 24.9942 85.4376 21.1669 85.4376 15.986C85.4376 10.8051 81.7036 6.97783 76.9195 6.97783ZM76.3127 21.2836C73.4189 21.2836 71.2952 19.0432 71.2952 16.0093C71.2952 12.9755 73.4422 10.7118 76.3361 10.7118C79.2765 10.7118 81.3302 12.9522 81.3302 16.0093C81.3302 19.0432 79.2065 21.2836 76.3127 21.2836ZM57.713 6.97783C55.0758 6.97783 53.3722 8.05134 52.3687 9.56826V7.32789H48.3547V24.6908H52.3921V15.2625C52.3921 12.6021 54.0724 10.7351 56.5694 10.7351C58.9032 10.7351 60.3501 12.3687 60.3501 14.7725V24.7141H64.3874V14.4691C64.3874 10.0817 62.1237 6.97783 57.713 6.97783ZM140 15.4492C140 10.4784 136.359 6.97783 131.482 6.97783C126.301 6.97783 122.497 10.8751 122.497 16.0093C122.497 21.4236 126.581 25.0175 131.552 25.0175C135.753 25.0175 139.067 22.5438 139.907 18.9965H135.706C135.099 20.5368 133.629 21.4236 131.622 21.4236C129.032 21.4236 127.071 19.8133 126.628 16.9895H140V15.4492ZM126.861 14.0957C127.491 11.6686 129.312 10.5018 131.412 10.5018C133.699 10.5018 135.449 11.8086 135.869 14.0957H126.861Z" fill="#0052FF"/>
</svg>
