<?xml version="1.0" encoding="utf-8"?>
<!-- Generator: Adobe Illustrator 23.0.1, SVG Export Plug-In . SVG Version: 6.00 Build 0)  -->
<svg version="1.1" id="katman_1" xmlns="http://www.w3.org/2000/svg" xmlns:xlink="http://www.w3.org/1999/xlink" x="0px" y="0px"
	 viewBox="0 0 2033.7 652.6" style="enable-background:new 0 0 2033.7 652.6;" xml:space="preserve">
<style type="text/css">
	.st0{fill:#FFFFFF;}
	.st1{fill:#41AC48;}
	.st2{display:none;}
	.st3{display:inline;}
	.st4{fill:none;stroke:#FF0013;stroke-miterlimit:10;}
	.st5{display:inline;fill:none;stroke:#FF0013;stroke-miterlimit:10;}
</style>
<path class="st0" d="M1065.7,575.8v-7c-4.8,5.6-12.3,8.6-20.8,8.6c-10.4,0-22.2-7.2-22.2-21.2c0-14.9,11.7-21,22.2-21
	c8.8,0,16.1,2.8,20.8,8.2v-9.6c0-7.4-6.2-11.9-15-11.9c-7.2,0-13.5,2.7-19,8.2l-5.8-9.7c7.4-7.2,16.7-10.4,27-10.4
	c14.3,0,26.8,6,26.8,23.1v42.6h-14V575.8z M1065.7,561.2v-9.8c-3.3-4.4-9.3-6.6-15.3-6.6c-7.8,0-13.8,4.6-13.8,11.5
	c0,7,6,11.6,13.8,11.6C1056.4,567.8,1062.3,565.6,1065.7,561.2z"/>
<path class="st0" d="M1462.5,543.7c0-19.4,13.7-33.6,33.1-33.6c12.6,0,20,5.3,24.6,11.4l-9.2,8.4c-3.6-5-8.5-7.4-14.7-7.4
	c-11.6,0-19.4,8.8-19.4,21.2c0,12.5,7.8,21.4,19.4,21.4c6.2,0,11.2-2.7,14.7-7.7l9.2,8.6c-4.5,6-11.9,11.4-24.6,11.4
	C1476.2,577.4,1462.5,563,1462.5,543.7z"/>
<path class="st0" d="M1530.6,543.7c0-18.5,12.5-33.6,32.9-33.6s32.9,15.1,32.9,33.6c0,18.3-12.5,33.7-32.9,33.7
	S1530.6,562,1530.6,543.7z M1582,543.7c0-11.3-6.5-21.2-18.5-21.2c-11.8,0-18.5,10-18.5,21.2c0,11.4,6.6,21.4,18.5,21.4
	C1575.5,565,1582,555.1,1582,543.7z"/>
<path class="st0" d="M1690.7,575.8V534c0-6.9-3.1-11.6-10.6-11.6c-6.2,0-12.1,4.2-14.9,8.5v44.9h-13.9V534c0-6.9-2.9-11.6-10.5-11.6
	c-6.2,0-11.9,4.4-14.9,8.5v44.9H1612v-64.1h13.9v8.6c2.8-3.9,11.2-10.2,21-10.2c9.6,0,15.4,4.8,17.5,11.7
	c3.6-5.7,12.1-11.7,21.8-11.7c11.7,0,18.5,6.4,18.5,19.4v46.3L1690.7,575.8L1690.7,575.8z"/>
<path class="st0" d="M1738,566.9v33.3h-13.9v-88.5h13.9v8.8c4.8-6.4,12.2-10.4,20.6-10.4c16.6,0,28.4,12.5,28.4,33.6
	s-11.8,33.7-28.4,33.7C1750.4,577.4,1743.3,573.7,1738,566.9z M1772.6,543.7c0-12.5-7.2-21.2-18.2-21.2c-6.5,0-13.3,3.7-16.5,8.5
	v25.4c3.1,4.8,10,8.8,16.5,8.8C1765.4,565,1772.6,556.1,1772.6,543.7z"/>
<path class="st0" d="M1841.5,575.8v-7c-4.8,5.6-12.3,8.6-20.8,8.6c-10.4,0-22.2-7.2-22.2-21.2c0-14.9,11.7-21,22.2-21
	c8.8,0,16.1,2.8,20.8,8.2v-9.6c0-7.4-6.2-11.9-15-11.9c-7.2,0-13.5,2.7-19,8.2l-5.8-9.7c7.4-7.2,16.7-10.4,27-10.4
	c14.3,0,26.8,6,26.8,23.1v42.6h-14V575.8z M1841.5,561.2v-9.8c-3.3-4.4-9.3-6.6-15.3-6.6c-7.8,0-13.8,4.6-13.8,11.5
	c0,7,6,11.6,13.8,11.6C1832.2,567.8,1838.2,565.6,1841.5,561.2z"/>
<path class="st0" d="M1918.3,575.8v-40.1c0-10.1-5.2-13.3-13-13.3c-7,0-13.1,4.2-16.5,8.5v44.9h-13.9v-64.1h13.9v8.6
	c4.2-5,12.6-10.2,22.7-10.2c13.8,0,20.7,7.4,20.7,20.6v45.1H1918.3z"/>
<path class="st0" d="M1950.9,588.4c1.5,0.7,3.7,1.1,5.3,1.1c4.5,0,7.4-1.3,9.3-5.6l3.2-7.3l-26.4-64.9h15l18.7,48.1l18.7-48.1h14.9
	l-30.9,75.7c-4.4,10.9-11.9,14.3-21.9,14.5c-2,0-6-0.4-7.8-0.9L1950.9,588.4z"/>
<g>
	<g>
		<path class="st0" d="M1169,538.8c0-7.8-4.1-10.6-10.5-10.6c-6.1,0-10.1,3.3-12.5,6.2v41.5h-20.5v-64.2h20.5v5.6l-2.5,4.7
			c3.9-4.5,13.9-11.9,24.7-11.9c14.6,0,21.3,8.5,21.3,20.3v45.5H1169V538.8z"/>
	</g>
	<g>
		<path class="st0" d="M1239.1,566.4c-4,4.5-13.5,11.1-24.2,11.1c-14.6,0-21.1-8.2-21.1-20.1v-45.7h20.5V549c0,7.7,4,10.4,10.6,10.4
			c5.8,0,9.8-3.2,12.2-6.2v-41.5h20.5v64.2h-20.5v-4.8L1239.1,566.4z"/>
	</g>
	<g>
		<path class="st0" d="M1358.7,510.1c19,0,32.8,14,32.8,35.8v4.4h-44.2l-1.8-2.4c0,0.8,0.1,1.9,0.4,2.9c1.5,5.8,6.9,10.9,16.2,10.9
			c5.7,0,12.1-2.3,15.7-5.4l8.6,12.8c-6.4,5.7-17,8.5-26.8,8.5c-19.8,0-35.1-12.9-35.1-33.8C1324.5,525.1,1338.6,510.1,1358.7,510.1
			z M1345.5,536.9h26.4c-0.5-4.5-3.9-11-13.3-11C1349.8,525.9,1346.3,532.3,1345.5,536.9z"/>
	</g>
	<g>
		<path class="st0" d="M1395.7,511.7h20.5v64.2h-20.5V511.7z"/>
	</g>
</g>
<g>
	<polygon class="st0" points="1308.1,511.7 1294.3,549.9 1294.8,555.9 1279,511.7 1261.6,511.7 1261.6,522.1 1282.7,575.9 
		1304.5,575.9 1329.8,511.7 	"/>
</g>
<g>
	<path class="st1" d="M1394.2,535.9c0-6.5,5.2-11.7,11.7-11.7s11.7,5.2,11.7,11.7s-5.2,11.7-11.7,11.7
		C1399.4,547.6,1394.2,542.4,1394.2,535.9z"/>
</g>
<path class="st1" d="M378.5,15c-14,5.3-22.2,15.2-24.8,29.9l-1,6.4l-83,18.9l-82.9,18.9l-1.6-2.5c-3.3-5.1-10.4-12-15.1-14.5
	c-18.7-10.1-42.7-2.4-51.7,16.7c-2.4,4.9-2.7,7-2.7,16.5c0,9.8,0.3,11.3,2.8,16.2c1.6,3,4.6,7.2,6.7,9.4l3.9,4.1l-37,76.6
	l-36.9,76.7l-9-0.1c-7.8,0-9.7,0.3-15.8,3.2c-8,3.8-14.1,9.5-18,17c-2.7,5-2.9,6.4-2.9,16.8c0,9.8,0.3,12,2.4,16.2
	c3.8,7.6,9.9,13.8,17.5,17.5c6.2,3.1,7.7,3.4,16.3,3.4h9.4l35.6,74.1c19.6,40.8,36.1,75.3,36.8,76.7c1,2.4,0.7,3.1-2.6,6.6
	c-2.1,2.2-4.9,6.3-6.5,9.3c-2.6,4.7-2.8,6.3-2.8,16.6c0,9.8,0.3,11.9,2.4,16.2c12.9,25.7,48.6,28.7,64.7,5.4
	c2.6-3.7,4.4-5.5,5.5-5.1c0.9,0.3,37.6,8.6,81.4,18.6c43.9,10,80.5,18.3,81.4,18.6c1.2,0.3,2,2.2,2.4,5.9
	c1.5,11.9,9.9,23.6,20.7,28.6c5.6,2.7,7.3,3,16.6,3c9.5,0,10.9-0.3,16.7-3.2c7.8-3.9,14.7-11.4,17.8-19.3c2.8-7.2,3.1-20.1,0.6-26.6
	l-1.5-4.3l59.8-47.7c32.9-26.3,62.9-50.1,66.7-53.1l6.9-5.4l7,3.6c9.1,4.5,16.9,5.5,26.1,3.1c17.4-4.4,28-18.2,28-36.3
	c0-9.1-2.5-16.5-8-23.7c-3.3-4.3-10.5-9.3-16.4-11.3l-4.6-1.5v-85.9c0-82.1,0.1-85.9,1.9-85.9c3.8,0,12.7-5.5,17.6-10.9
	c9.5-10.4,12.4-25.5,7.3-38.7c-2.9-7.8-10.7-16.4-18.3-20.1c-5.3-2.6-7-2.9-16.2-2.9c-9.6,0-10.8,0.2-17.1,3.3
	c-3.8,1.9-7.1,3.4-7.4,3.4c-0.4,0-30.6-23.9-67-53l-66.4-53l1.4-3.4c5.4-13,0.7-32.4-10-41.5c-7.1-5.9-13-8-23.5-8.3
	C385.6,13.8,381.1,14.1,378.5,15z M354.4,68.1c0.3,0.4-15.8,13.8-35.7,29.8l-36.3,28.8l-33.5-7.6c-56.3-12.8-56.5-12.9-56.5-14.2
	c0-0.8,21.7-6.3,64.7-16c35.5-8.1,71-16.3,79-18.1C351.7,67,353.6,66.8,354.4,68.1z M365.5,83.8c-0.2,0.8-6.2,13.6-13.3,28.4
	c-9.1,18.8-13.5,27.1-14.6,27c-4.2-0.1-34.2-7.7-34-8.6c0.4-1.6,60-48.8,61.2-48.5C365.4,82.2,365.7,83,365.5,83.8z M481.5,133.1
	c56,44.7,66.6,53.6,63.2,53.5c-2.9-0.1-89.2-20.5-89.9-21.2c-1.8-1.8-39.9-82.3-39.4-83.1c0.3-0.4,0.9-0.7,1.3-0.5
	C417.3,82,446.4,105.1,481.5,133.1z M382.8,119.7c0,16.4-0.2,29.9-0.4,29.9c-1.3,0-26.7-6.1-27-6.5c-0.9-0.9,24.7-53.2,26-53.2
	C382.5,89.8,382.8,96,382.8,119.7z M418.1,125.6c9.5,19.7,17.1,35.7,16.9,35.8c-0.1,0.1-8.4-1.6-18.4-3.9l-18.3-4.2v-31.7
	c0-25,0.3-31.7,1.3-31.7C400.3,89.8,408.6,105.9,418.1,125.6z M227.7,130c20,4.5,36.9,8.5,37.7,8.8s-4.3,5.1-13.4,12.3l-14.8,11.8
	l-4.1-3.4c-2.3-1.9-13.3-10.6-24.4-19.6c-11.2-8.9-20.4-16.6-20.4-17.2c0-0.5,0.7-0.9,1.5-0.9C190.7,121.8,207.7,125.5,227.7,130z
	 M202.2,154.8c18.3,14.6,21.9,17.9,20.8,19c-0.7,0.7-5.8,4.8-11.1,9.1c-6.8,5.5-10,7.4-10.5,6.5c-2.9-5.3-24.5-51.2-24.5-52.2
	C176.9,134.9,179.9,137,202.2,154.8z M175.9,172.2l13.6,28.3l-3.6,3.1c-2,1.6-8.8,7.1-15,12.1l-11.4,9v-40c0-31.1,0.3-40.2,1.3-40.6
	c0.6-0.2,1.3-0.4,1.4-0.3C162.3,143.8,168.5,156.7,175.9,172.2z M310.7,149c11.6,2.7,21.1,4.8,21.2,4.9c0.3,0.4-28.9,60.4-29.4,60.4
	c-1.5,0-52.5-41.6-51.8-42.2c5.8-5.7,36.2-28.7,37.4-28.4C288.9,144.1,299.1,146.5,310.7,149z M145,190.4l-0.1,46.1l-35.6,28.4
	c-19.6,15.5-36.1,28.4-37,28.6c-0.8,0.2-1.4-0.2-1.4-0.8c0-1,55.9-118,67-140.3C145,138.2,145,138.2,145,190.4z M365.6,161.6
	l17.2,3.8l-0.2,37.6l-0.3,37.7l-18.5,4.2l-18.5,4.2l-14.7-11.8c-8.1-6.5-14.7-12.3-14.7-12.9c0-1.3,31.2-66.5,31.9-66.6
	C348.1,157.8,356,159.4,365.6,161.6z M421.4,174.3c12.4,2.9,22.6,5.3,22.8,5.5c1.6,2.1,19.7,41.6,19.1,42
	c-0.4,0.4-14.4,3.8-31.1,7.5c-16.7,3.8-31.2,7.1-32.1,7.4c-1.8,0.5-1.9-1.5-1.9-33.5c0-18.7,0.1-34.1,0.3-34.1
	S409.1,171.5,421.4,174.3z M268.3,207.5c14.8,11.8,27,21.8,27,22.3c0,0.4-3.7,8.3-8.1,17.6l-8.2,16.8l-16.8,3.9
	c-9.3,2.1-17.7,3.8-18.9,3.9c-1.8,0-3.2-2.2-7.6-11.6c-3.1-6.3-10.3-21.3-16.1-33.4L209,205.2l14.1-11.2
	c13.5-10.9,14.1-11.2,16.2-9.6C240.4,185.4,253.5,195.8,268.3,207.5z M521.8,197.2c13.6,3.1,19,4.7,19,5.8s-8.2,3.4-30.4,8.4
	c-16.7,3.8-30.5,6.9-30.6,6.8c-0.1-0.1-3.8-7.9-8.3-17.3l-8.1-17l19.7,4.4C493.9,190.8,511.3,194.8,521.8,197.2z M211.5,246.1
	c7.7,16.1,13.6,29.5,13.2,30.1c-0.5,0.4-14.8,3.9-31.8,7.7c-17,3.8-31.5,7.2-32.1,7.4c-1,0.4-1.3-4.6-1.3-23.1v-23.6l18.3-14.5
	c10-8,18.5-14.2,18.9-13.8C197.1,216.7,203.8,230.2,211.5,246.1z M545.3,221c-0.2,0.8-10.5,9.6-23,19.5l-22.6,18l-5.9-11.6
	c-3.3-6.5-6.1-12.4-6.2-13c-0.2-0.9,8.3-3.3,27-7.7C545.1,219,545.8,218.9,545.3,221z M557.1,235.8c-0.5,2.3-33.7,70.2-34.3,70.2
	c-0.4,0-1.2-1-1.8-2.4c-0.6-1.2-4.2-8.6-7.9-16.5l-6.7-14.2l24.4-19.5C553,235.8,557.7,232.6,557.1,235.8z M479.1,252.1
	c4.2,9,7.7,16.3,7.7,16.5c0,0.1-12.4,10.1-27.5,22.1c-15.2,12-28.3,22.4-29.2,23.3c-1.4,1.2-3.5-0.2-16.7-10.7l-15.1-12V272v-19.3
	l8-1.8c4.3-1,20.5-4.7,35.7-8.2c15.3-3.6,28.1-6.5,28.5-6.6C470.9,236,474.7,243.2,479.1,252.1z M320.8,249.4c3,2.4,4,3.7,3.1,4.2
	c-0.7,0.4-6,1.8-11.6,3c-5.7,1.2-11.1,2.5-12,2.7c-1.3,0.4-0.6-1.9,3.1-9.8l4.8-10.3l4.1,3.4C314.5,244.5,318.4,247.5,320.8,249.4z
	 M574.3,325c0,66.6-0.3,82.9-1.3,83.3c-0.9,0.3-7.6-12.6-20.8-40c-10.8-22.3-19.8-41.4-19.9-42.2c-0.5-2.4,38.9-83.8,40.7-83.8
	C574.1,242.2,574.3,256.6,574.3,325z M144.6,294.5c-0.8,0.8-61.9,14.5-62.4,14c-1-1.1,3-4.6,31.9-27.7l30.4-24.1l0.3,18.6
	C144.9,285.5,144.8,294.2,144.6,294.5z M382.8,267.5c0,8.3-0.3,10.6-1.2,10.1c-0.7-0.5-5.8-4.3-11.1-8.5l-9.7-7.7l9.2-2.3
	C384,255.7,382.8,254.9,382.8,267.5z M362.1,282.4l20.7,16.5v26.5v26.5l-20.5,16.2c-11.3,9-21.2,16.3-21.9,16.3
	c-2.9,0-50.8-11.3-51.1-12c-0.1-0.4-5.3-11.2-11.4-24l-11.1-23.1L278,302c6.2-12.8,11.5-23.5,11.9-23.9c0.6-0.6,47.2-11.8,50.2-12
	C340.8,265.9,350.7,273.3,362.1,282.4z M269.6,283.1c0,1.3-10.6,23-11.3,23c-0.3,0-2.7-4.3-5.4-9.6l-4.7-9.6l9.5-2.2
	C268.4,282.3,269.6,282,269.6,283.1z M504.6,305.1l9.7,20.1l-9.9,20.8c-5.5,11.4-10.4,20.7-10.9,20.5c-2-0.4-51.9-40.4-51.7-41.2
	c0.5-1.6,51.7-41.8,52.4-41.1C494.5,284.6,499.2,294,504.6,305.1z M241,307.4c4.3,9.2,7.9,17.1,7.9,17.7c0,2.3-15.9,34.5-17,34.5
	c-1.2,0-67.4-15-70.7-16.1c-1.6-0.5-1.9-2.3-1.9-18.4v-17.8l10.1-2.3c5.5-1.3,21.6-5,35.7-8.3c14.2-3.2,26.3-6,26.8-6
	C232.6,290.7,236.6,298.2,241,307.4z M144.8,339.6c-0.3,0.2-34.8-7.4-56.1-12.5c-1.3-0.3-2.4-1.1-2.4-1.9c0-0.9,9.4-3.5,29.1-8
	l29-6.6l0.3,14.3C144.9,332.8,144.9,339.4,144.8,339.6z M415,324.6c0.6,0.6-5.7,6.2-15.4,13.7c-1,0.7-1.3-2-1.3-13.1v-14.1l8,6.4
	C410.6,321,414.6,324.2,415,324.6z M457.2,358.1c15.4,12.3,28.4,22.6,28.8,23.1c0.9,0.8-14.1,32.9-15.4,32.9
	c-1,0-67.8-15.2-70.5-16.1c-1.6-0.5-1.9-2.4-1.9-19.8l0.1-19.3l14.6-11.5c8-6.4,15-11.6,15.4-11.6S441.8,345.9,457.2,358.1z
	 M112.2,348.2c14.9,3.4,28.1,6.4,29.4,6.7c2.3,0.5,2.3,0.7,2.3,19.6v19L113,368.8c-17-13.6-30.9-25.2-30.9-25.7
	C82.2,341.5,83.7,341.8,112.2,348.2z M264.5,356.4l5.8,12.1l-8.3-1.9c-4.6-1-8.8-2-9.4-2c-0.5,0-1.6-0.4-2.4-0.9
	c-1.1-0.7-0.5-2.8,2.9-10.3c2.5-5.1,4.7-9.4,5-9.4C258.4,344,261.3,349.6,264.5,356.4z M540.1,378.8c9.2,19.1,16.7,35.4,16.7,36
	c0,0.7-0.4,1.3-0.9,1.3c-1.2,0-49-38-49-39c0-1.1,15.4-33,16-33C523.1,344.1,530.8,359.8,540.1,378.8z M108.8,385.4l35.1,28.1v46.7
	c0,33.7-0.3,46.6-1.1,46.3c-1.4-0.5-73-148.8-72.2-149.6c0.3-0.3,1.2-0.3,1.9-0.1C73.2,357.2,89.6,370.1,108.8,385.4z M196,367.4
	l30,6.9l-14.5,30.2c-9.2,19.1-14.9,30.1-15.8,29.8c-0.7-0.2-9.2-6.8-18.8-14.5l-17.5-14v-23.2v-23.3l3.4,0.7
	C164.5,360.3,179.6,363.7,196,367.4z M382.8,383.1v11.2l-10.5-2.5c-5.8-1.4-10.6-2.7-10.8-2.9c-0.3-0.2,20.3-16.9,21.1-17.1
	C382.7,371.9,382.8,377,382.8,383.1z M259.1,381.7c8.9,2.1,17,3.9,18.1,4.3c1.2,0.3,4.7,6.3,10,17.4c4.5,9.4,8.1,17.2,8.1,17.4
	c0,0.5-55,44.7-57.2,46.1c-0.7,0.4-7.2-4.1-15.1-10.5l-14-11.1l16.2-33.6c8.9-18.5,16.5-33.7,17-33.7
	C242.5,378.1,250.1,379.8,259.1,381.7z M317.1,404l-8.9,7.1l-3.6-7c-1.9-3.8-4.1-8.4-4.8-10.2l-1.3-3.2l13.8,3.1L326,397L317.1,404z
	 M523.2,410.9c12.7,10.1,22.8,18.8,22.3,19.4c-0.4,0.6-11.1-1.3-28.4-5.4c-15.2-3.5-28.3-6.6-29-6.8c-1.1-0.4,10.1-25.6,11.4-25.6
	C499.9,392.5,510.6,400.8,523.2,410.9z M362.4,405.4c8.6,2,16.8,3.8,18.1,4.1l2.3,0.5v37.5V485l-14.1,3.3
	c-7.8,1.8-15.8,3.7-17.6,4.1l-3.5,0.9l-7.5-15.6c-4.1-8.6-11.4-23.8-16.3-33.9l-8.8-18.1l14.9-11.9c8.2-6.6,15.3-11.9,15.9-11.9
	C346.3,401.8,353.8,403.4,362.4,405.4z M432.1,421.3c17.2,3.9,31.5,7.3,31.7,7.5s-4.2,9.9-9.8,21.4l-10.2,21l-22,4.9
	c-12.1,2.7-22.3,4.8-22.8,4.8s-0.8-15-0.8-33.5c0-26.6,0.3-33.5,1.3-33.5C400.3,414.1,414.9,417.3,432.1,421.3z M173.6,436.9
	c7.2,5.8,13.7,11.1,14.5,11.7c1.1,1.1-0.9,6.2-12.4,29.8c-7.5,15.6-14.1,28.3-14.7,28.1c-1.1-0.4-2.3-80-1.1-80
	C160.2,426.5,166.4,431.2,173.6,436.9z M511.1,439.4c16.2,3.7,29.7,6.7,29.9,6.7s0.4,0.7,0.4,1.5s-0.2,1.5-0.4,1.5
	c-0.7,0-73,16.5-74.9,17.1c-1,0.3-1.9,0.1-1.9-0.4c0-1.9,15.6-33.2,16.6-33.2C481.2,432.7,494.9,435.7,511.1,439.4z M317.5,466.4
	c7.7,16.1,13.6,29.5,13.2,30.1c-0.5,0.4-10.7,3-22.6,5.7l-21.6,4.9l-18.1-14.3c-10-7.8-18.1-14.6-18-15c0.4-1.4,51.7-41.8,52.4-41.2
	C303.1,437,309.8,450.5,317.5,466.4z M223.5,477c1.2,0.9-45,38-46.3,37.2c-0.6-0.4,4.2-11.7,11.8-27.7l13-26.9l10.3,8.3
	C218.1,472.5,223.1,476.6,223.5,477z M544.3,467.3c-5.7,5.6-128.2,102.1-128.9,101.4c-0.6-0.6,37.3-81.5,39.3-83.7
	c1.2-1.3,90.2-21.1,90.6-20.1C545.6,465.4,545.1,466.4,544.3,467.3z M252.2,499.7c7.9,6.3,14.3,11.6,14.1,11.7
	c-0.2,0.2-17,4.1-37.4,8.8s-37.9,8.6-38.9,9c-5.4,1.4,0.7-4.4,22.4-21.8c13.1-10.4,24.1-18.9,24.5-19
	C237.3,488.3,244.2,493.4,252.2,499.7z M427.7,504.9c-23.3,48.6-27.5,56.7-28.4,55.8c-0.7-0.7-0.9-12.5-0.8-32.3l0.3-31.2l16.5-3.9
	c9.1-2.1,17.3-3.8,18.2-3.9C434.8,489.3,433.5,492.8,427.7,504.9z M381.7,560.7c-0.8,0.8-1.3,0.8-1.5,0c-0.3-0.6-6-12.6-12.8-26.6
	c-6.8-14.1-12.4-25.8-12.4-26.3s6.2-2.2,13.7-3.8l13.6-3l0.3,29.2C382.8,551.3,382.5,560,381.7,560.7z M352.4,538.8
	c15.8,32.8,14.4,29.8,12.6,29.8s-62.9-48.4-62.1-49.1c0.4-0.4,32.9-8.2,35.1-8.4C338.6,511,345.1,523.5,352.4,538.8z M318.9,553
	c19.8,15.8,35.6,29.1,35.2,29.7c-0.4,0.7-29-5.4-78.9-16.8c-43-9.8-79.3-18.1-80.5-18.4c-6.8-1.6-1-3.5,40.7-13.1
	c23.6-5.5,44-9.9,45.2-10C282.1,524.3,294.6,533.7,318.9,553z"/>
<path class="st0" d="M1577.6,163.4l-2.6,2.5v120v119.9l2.4,2.8c3.3,3.8,10.5,3.8,13.9-0.1l2.3-2.7V285.9v-120l-2.6-2.5
	C1587.5,159.8,1581.1,159.8,1577.6,163.4z"/>
<path class="st1" d="M940.5,165.9c-11.1,3.7-20.8,13.6-24.1,24.7c-2.5,8.5-1.4,20.6,2.3,28.2c3.7,7.5,12.1,15.4,19.1,17.9l5,1.9
	l0.1,81.8c0,60.5,0.3,82.8,1.2,85.5c1.4,4.3,6.4,6.5,11.4,5c6.7-2,6.3,4.3,6.6-88.4c0.2-79.3,0.3-84.4,2.1-84.4
	c3.2,0,12.1-6,17-11.3c7-7.8,9.3-14.6,8.8-26.8c-0.5-11.4-3.2-17.8-10.5-25.1C969.9,165.2,953.8,161.5,940.5,165.9z"/>
<path class="st0" d="M794.5,238.1c-25.4,3.2-44,14.1-52.1,30.7l-3.9,7.8V290c0,12,0.3,14,2.4,18.2c6.9,13.9,22,20.9,50.7,23.5
	c6.5,0.6,16.1,1.1,21.1,1.1c19.9,0,39.2,4.1,47.6,10.2c9.7,7,10.3,25.5,1.2,37s-33.4,17.9-59.9,15.5c-20.5-1.8-36.3-7.6-47.6-17.7
	c-5.4-4.7-6.6-5.4-10.6-5.4c-5.7,0-8.4,2.9-8.4,9.1c0,3.8,0.6,4.8,6,10c6.4,6.2,18.1,12.9,29,16.4c11.8,3.9,24.9,5.6,44.3,5.5
	c27.8-0.1,39.9-3,52.8-12.7c15.9-11.9,22.4-28.1,19.3-47.8c-2.2-14.1-9.3-23.5-22.1-29.5c-10.5-4.8-22.9-6.9-52.5-8.5
	c-28.2-1.5-35.2-2.8-44.8-7.5c-7.9-3.9-10.6-9.2-10-19.3c0.6-11.4,4.7-17.6,15.6-23.7c12.7-7,18.6-8.2,38.1-8.2
	c15.4,0,18.4,0.3,25.2,2.4c9.9,3.2,16.9,6.7,22.6,11.4c6.1,5,8.4,6.3,12.4,6.3c7.3,0,10.9-9.7,6-16c-5.9-7.5-25.5-17.3-41.5-20.6
	C825.6,237.7,804.2,236.9,794.5,238.1z"/>
<path class="st0" d="M1088.5,237.7c-7.1,1.2-15.6,3.8-21.1,6.6c-6.5,3.3-16.3,11.7-20.8,17.9l-2.9,4V257c0-11.5-1.9-16-7.2-17.2
	c-2.3-0.6-4.6-0.5-6.5,0.2c-6,2.3-5.9,1-5.9,85.6c0,85.3-0.1,83.8,6.1,85c3.8,0.8,3.6,0.8,7.4,0c6-1.1,6.1-2.5,6.1-54.7
	c0-50.7,0.4-55.6,5.8-68.9c3-7.4,9.7-16.7,15.3-21.3c2.3-1.8,7.1-4.6,10.7-6.4c5.6-2.6,8.1-3.2,16.8-3.6c21.9-1,35.9,6.3,44,22.8
	c6.6,13.5,6.6,13.5,7.2,73.5c0.7,60,0.3,57,6.8,58.8c3.8,1.1,9.5-0.3,10.7-2.7c0.5-0.9,1.1-24,1.4-51.2c0.5-53.1,0.8-55.8,6.4-69.6
	c3.1-7.7,9.7-16.9,15.4-21.6c2.3-1.8,7.1-4.6,10.7-6.4c5.9-2.8,8.1-3.2,17.7-3.6c9.2-0.4,12.3-0.1,18.1,1.6
	c12.6,3.8,22.3,13.2,27,25.5c4.7,12.5,5.3,20.2,5.3,73.1v49.7l2.4,2.7c3.9,4.6,14.4,3.4,15.6-1.9c0.4-1.3,0.5-27.8,0.3-58.9
	c-0.4-54.9-0.4-56.8-2.7-64.9c-8.1-28.9-25.5-43.3-55-45.4c-28-1.9-52.2,9.2-64.1,29.3c-1.6,2.9-3.3,5.3-3.6,5.3s-1.9-2.6-3.5-5.8
	c-9.5-18-26.8-28-50-28.7C1096.5,237.4,1090.3,237.5,1088.5,237.7z"/>
<path class="st0" d="M1419.1,238.2c-19,2.6-40.3,14.9-50.8,29.5l-3.2,4.3l-0.4-13.9c-0.3-12.8-0.5-14-2.7-16.2
	c-3.3-3.3-10.5-3.3-13.8,0l-2.4,2.4v113.8V472l2.9,2.5c3.8,3.3,9,3.3,12.8,0l2.9-2.5l0.3-46.5l0.3-46.4l3.9,4.9
	c5.3,6.6,11.2,11.8,19.7,17.4c14.5,9.4,24.8,11.9,47.9,11.9c17.8,0.1,26.3-1.6,38.8-8c22.6-11.3,35.1-26.3,42.7-51.4
	c2.6-8.6,2.8-10.5,2.8-28.3c0-21.3-1-27.6-7.2-41c-10.3-22.4-29.3-38.4-53.4-44.6C1450.6,237.6,1429.9,236.6,1419.1,238.2z
	 M1452.9,257.6c22,5.7,39,21.6,45.8,43.2c7,22.1,3.6,48.6-8.3,66.5c-7.9,11.9-18.8,20.1-33.2,24.8c-7.4,2.5-10,2.8-22.8,2.8
	c-12.4,0.1-15.5-0.2-22.1-2.3c-21.4-6.7-36.7-21.4-43.8-42.5c-4.1-12.4-4.8-30.7-1.6-43.1c6.3-25.2,23.5-43,47.7-49.4
	C1425.1,255,1442.3,254.9,1452.9,257.6z"/>
<path class="st0" d="M1715.2,238.1c-26.4,4.7-49.8,21.7-60.4,43.8c-7.8,16.1-9.3,22.9-9.3,43.8c0.1,20.9,1.3,27.7,7.7,40.7
	c13.8,28.1,37.5,43.7,71.7,46.8c11.5,1.1,26.3,0.1,36.9-2.7c18.4-4.7,43.7-22.2,46.1-32.1c0.9-3.3-1-9.3-3.3-10.5
	c-1-0.5-3.6-1-5.8-1c-3.3,0-4.8,0.9-12.1,8c-9.5,9.2-16.2,13.3-27.9,17.3c-7.5,2.7-9.6,2.9-23.2,3c-17.1,0-23.6-1.3-36-7.4
	c-11.2-5.5-22-16.4-27.6-28.1c-3.6-7.6-7.4-20.5-7.4-25.1c0-1.4,8.5-1.6,73.9-1.9c59.1-0.2,74.3-0.6,76.2-1.6
	c4.1-2.4,5.7-7.8,4.8-17.1c-3.2-37.1-26.3-64.7-61.8-73.7C1748.3,237.7,1724.1,236.5,1715.2,238.1z M1752.5,257.6
	c21.6,5.5,38.3,21.1,45.2,42.2c1.4,4.2,2.8,9.3,3.2,11l0.6,3.4h-68.4h-68.4l1.5-7c6.1-27.1,24.9-45.1,53.3-51.1
	C1726,255,1745.1,255.7,1752.5,257.6z"/>
<path class="st0" d="M1854,240.5c-1.4,0.7-3.2,2.6-3.9,4.2c-3.1,6.2-2.2,7.5,32.2,44.9l32.3,35.3l-16.8,18.1
	c-52.8,57-50,53.7-50,58.6c0,2.5,0.5,5.4,1,6.4c1.5,2.8,7.7,4.3,11.3,2.8c1.5-0.7,17.3-17.4,35-37.1s32.5-35.6,32.9-35.5
	c0.3,0.2,14.8,16.1,32.1,35.3c17.2,19.3,32.1,35.6,33,36.4c0.9,0.7,3.6,1.3,6,1.3c6-0.1,9.2-3.3,9.2-9.1c0-5.4,2.9-1.9-36.9-45.1
	l-30.3-32.7l4.1-4.3c2.2-2.3,16.9-18.2,32.5-35.4c27.8-30.6,28.4-31.3,28.4-35.5c-0.1-6.8-4.5-10.7-10.8-9.6
	c-2.9,0.6-8.2,6.1-35,36.1c-17.3,19.6-31.9,35.5-32.3,35.5s-14.6-15.5-31.5-34.5s-31.6-35.2-32.8-36
	C1861.3,238.8,1857.4,238.7,1854,240.5z"/>
<g class="st2">
	<g class="st3">
		<path class="st4" d="M1070.2,374c-1.4-1.2-3.3-4-3.3-7.3c0-4.4,2.5-6.3,6-6.3h13.7v6.1h-11.2c-2.3,0-3.1,1.2-3.1,3.2
			c0,1.7,1,2.9,1.9,3.7h12.4v6.1h-19.2v-6.1h1.4L1070.2,374z"/>
	</g>
	<rect x="587.2" y="359.8" class="st5" width="844.7" height="19.8"/>
	<rect x="1013.7" y="-9.3" class="st5" width="295.3" height="844.7"/>
</g>
</svg>
