<svg width="135" height="52" viewBox="0 0 135 52" fill="none" xmlns="http://www.w3.org/2000/svg">
<path d="M27.15 6.14995C22.2585 6.14995 18.4441 9.54374 18.4441 14.1099C18.4441 18.6761 22.1688 22.0493 27.15 22.0493C32.1313 22.0493 35.9233 18.6144 35.9233 14.0894C35.9233 9.58488 32.1986 6.14995 27.15 6.14995ZM27.1949 18.7584C24.4126 18.7584 22.3707 16.7838 22.3707 14.1099C22.3707 11.4155 24.3677 9.4409 27.1724 9.4409C29.9996 9.4409 32.0191 11.4566 32.0191 14.1099C32.0191 16.7632 29.9772 18.7584 27.1949 18.7584ZM37.0003 9.62602H39.4236V21.7614H43.3054V6.45848H37.0003V9.62602ZM8.66108 9.4409C10.7029 9.4409 12.3185 10.5927 12.9467 12.3205H17.0529C16.3124 8.6593 13.0141 6.17052 8.70595 6.17052C3.81446 6.17052 0 9.56431 0 14.1305C0 18.6967 3.72471 22.0699 8.70595 22.0699C12.9243 22.0699 16.29 19.5811 17.0305 15.8788H12.9467C12.3634 17.586 10.7478 18.779 8.70595 18.779C5.87876 18.779 3.90422 16.8044 3.90422 14.1305C3.90422 11.4155 5.85632 9.4409 8.66108 9.4409ZM110.844 12.629L107.994 12.2382C106.625 12.0531 105.661 11.6417 105.661 10.675C105.661 9.60544 106.917 9.07067 108.645 9.07067C110.53 9.07067 111.719 9.81113 111.988 11.0247H115.735C115.309 7.9394 112.729 6.14995 108.735 6.14995C104.629 6.14995 101.891 8.08338 101.891 10.7984C101.891 13.4106 103.664 14.9121 107.276 15.3852L110.126 15.776C111.517 15.9611 112.302 16.4547 112.302 17.4009C112.302 18.6144 110.934 19.108 109.071 19.108C106.76 19.108 105.481 18.2442 105.279 16.9484H101.465C101.824 19.9308 104.382 22.0288 109.049 22.0288C113.29 22.0288 116.117 20.2599 116.117 17.1952C116.094 14.5007 114.052 13.0815 110.844 12.629ZM41.3757 0.143981C39.9397 0.143981 38.8851 1.09013 38.8851 2.38594C38.8851 3.68175 39.9621 4.62789 41.3757 4.62789C42.8118 4.62789 43.8663 3.68175 43.8663 2.38594C43.8663 1.09013 42.7893 0.143981 41.3757 0.143981ZM98.4132 11.6829C98.4132 8.37134 96.2142 6.14995 91.5471 6.14995C87.1493 6.14995 84.6811 8.18622 84.1875 11.3332H88.0468C88.2487 10.1197 89.2809 9.11181 91.4798 9.11181C93.4544 9.11181 94.4192 9.91397 94.4192 10.8807C94.4192 12.1559 92.6466 12.485 90.4252 12.6907C87.441 12.9787 83.7611 13.9248 83.7611 17.4831C83.7611 20.2393 86.0049 22.0082 89.5501 22.0082C92.3325 22.0082 94.0826 20.9386 94.9577 19.252C95.0923 20.7535 96.3264 21.7408 98.0317 21.7408H100.298V18.5733H98.3907L98.4132 11.6829ZM94.5763 15.5291C94.5763 17.5654 92.6242 19.0875 90.2682 19.0875C88.8097 19.0875 87.5756 18.5321 87.5756 17.3392C87.5756 15.8377 89.5501 15.4057 91.3676 15.2412C93.1178 15.0972 94.0826 14.7475 94.5763 14.0482V15.5291ZM73.9557 6.14995C71.7792 6.14995 69.9618 6.97269 68.6828 8.37134V0H64.801V21.7408H68.6155V19.7251C69.9169 21.1649 71.7568 22.0288 73.9557 22.0288C78.6228 22.0288 82.1456 18.6555 82.1456 14.0894C82.1456 9.52317 78.5555 6.14995 73.9557 6.14995ZM73.3723 18.7584C70.59 18.7584 68.5482 16.7838 68.5482 14.1099C68.5482 11.436 70.6125 9.4409 73.3948 9.4409C76.222 9.4409 78.1965 11.4155 78.1965 14.1099C78.1965 16.7838 76.1547 18.7584 73.3723 18.7584ZM55.4892 6.14995C52.9537 6.14995 51.3158 7.0961 50.3509 8.43304V6.45848H46.4916V21.7614H50.3734V13.4517C50.3734 11.1069 51.9889 9.46146 54.3898 9.46146C56.6336 9.46146 58.0247 10.9013 58.0247 13.0198V21.7819H61.9065V12.7524C61.9065 8.88555 59.73 6.14995 55.4892 6.14995ZM134.606 13.6163C134.606 9.23522 131.105 6.14995 126.416 6.14995C121.435 6.14995 117.777 9.58488 117.777 14.1099C117.777 18.8818 121.704 22.0493 126.483 22.0493C130.522 22.0493 133.708 19.8691 134.516 16.7427H130.477C129.894 18.1002 128.48 18.8818 126.55 18.8818C124.06 18.8818 122.175 17.4626 121.749 14.9738H134.606V13.6163ZM121.973 12.4233C122.579 10.2842 124.329 9.25578 126.349 9.25578C128.547 9.25578 130.23 10.4076 130.634 12.4233H121.973Z" fill="#0052FF"/>
<path d="M86.6715 30.3405C86.6715 31.3377 86.4914 32.1994 86.1313 32.9258C85.7713 33.6521 85.2773 34.2122 84.6495 34.6062C84.0216 35.0001 83.3045 35.1971 82.4982 35.1971C81.6918 35.1971 80.9747 35.0001 80.3469 34.6062C79.7191 34.2122 79.2251 33.6521 78.865 32.9258C78.5049 32.1994 78.3249 31.3377 78.3249 30.3405C78.3249 29.3434 78.5049 28.4816 78.865 27.7553C79.2251 27.029 79.7191 26.4689 80.3469 26.0749C80.9747 25.681 81.6918 25.484 82.4982 25.484C83.3045 25.484 84.0216 25.681 84.6495 26.0749C85.2773 26.4689 85.7713 27.029 86.1313 27.7553C86.4914 28.4816 86.6715 29.3434 86.6715 30.3405ZM85.5635 30.3405C85.5635 29.5219 85.4266 28.8309 85.1527 28.2677C84.8818 27.7045 84.514 27.2783 84.0493 26.989C83.5877 26.6997 83.0706 26.555 82.4982 26.555C81.9257 26.555 81.4072 26.6997 80.9424 26.989C80.4808 27.2783 80.113 27.7045 79.8391 28.2677C79.5683 28.8309 79.4328 29.5219 79.4328 30.3405C79.4328 31.1592 79.5683 31.8501 79.8391 32.4133C80.113 32.9765 80.4808 33.4028 80.9424 33.6921C81.4072 33.9814 81.9257 34.126 82.4982 34.126C83.0706 34.126 83.5877 33.9814 84.0493 33.6921C84.514 33.4028 84.8818 32.9765 85.1527 32.4133C85.4266 31.8501 85.5635 31.1592 85.5635 30.3405ZM96.0937 25.6133V35.0678H94.9858L89.8338 27.6445H89.7414V35.0678H88.5965V25.6133H89.7045L94.875 33.055H94.9673V25.6133H96.0937ZM98.3846 35.0678V25.6133H101.579C102.318 25.6133 102.924 25.7394 103.398 25.9918C103.872 26.2411 104.223 26.5843 104.451 27.0213C104.678 27.4583 104.792 27.9554 104.792 28.5124C104.792 29.0695 104.678 29.5634 104.451 29.9943C104.223 30.4252 103.874 30.7637 103.403 31.0099C102.932 31.2531 102.33 31.3746 101.598 31.3746H99.0125V30.3405H101.561C102.066 30.3405 102.472 30.2667 102.78 30.1189C103.09 29.9712 103.315 29.7619 103.454 29.4911C103.595 29.2172 103.666 28.891 103.666 28.5124C103.666 28.1339 103.595 27.803 103.454 27.5199C103.312 27.2367 103.086 27.0182 102.775 26.8643C102.464 26.7074 102.053 26.6289 101.542 26.6289H99.5295V35.0678H98.3846ZM102.835 30.8207L105.162 35.0678H103.832L101.542 30.8207H102.835ZM107.088 35.0678H105.888L109.359 25.6133H110.541L114.013 35.0678H112.812L109.987 27.109H109.913L107.088 35.0678ZM107.531 31.3746H112.369V32.3903H107.531V31.3746ZM115.485 25.6133H116.852L120.065 33.4613H120.176L123.389 25.6133H124.755V35.0678H123.684V27.8846H123.592L120.637 35.0678H119.603L116.649 27.8846H116.556V35.0678H115.485V25.6133ZM127.051 35.0678V25.6133H130.245C130.987 25.6133 131.593 25.7471 132.064 26.0149C132.538 26.2796 132.889 26.6381 133.117 27.0905C133.344 27.543 133.458 28.0477 133.458 28.6047C133.458 29.1618 133.344 29.6681 133.117 30.1236C132.892 30.5791 132.544 30.9422 132.073 31.2131C131.602 31.4808 130.999 31.6147 130.264 31.6147H127.974V30.5991H130.227C130.735 30.5991 131.142 30.5113 131.45 30.3359C131.758 30.1605 131.981 29.9235 132.12 29.625C132.261 29.3234 132.332 28.9833 132.332 28.6047C132.332 28.2262 132.261 27.8876 132.12 27.5891C131.981 27.2906 131.756 27.0567 131.446 26.8874C131.135 26.7151 130.722 26.6289 130.208 26.6289H128.196V35.0678H127.051Z" fill="black"/>
</svg>
