<svg width="97" height="24" viewBox="0 0 97 24" fill="none" xmlns="http://www.w3.org/2000/svg">
<path d="M83.0766 16.9786L80.0766 10.0874H82.0854L84.1342 15.0296L86.5021 10.0874H88.4778L83.8082 19.5794H81.7994L83.0766 16.9786ZM75.7716 15.5518C75.9489 15.5114 76.12 15.4477 76.2804 15.3622C76.4356 15.2797 76.5797 15.178 76.7095 15.0596C76.8391 14.9409 76.9511 14.8042 77.0421 14.6538C77.1374 14.4958 77.2112 14.3258 77.2616 14.1483C77.3161 13.9546 77.343 13.7542 77.3414 13.553C77.3433 13.3495 77.3164 13.1469 77.2616 12.951C77.2112 12.7735 77.1374 12.6035 77.0421 12.4454C76.9506 12.2944 76.8386 12.1568 76.7095 12.0364C76.5813 11.9169 76.4368 11.8161 76.2804 11.737C76.1188 11.6557 75.948 11.5943 75.7716 11.5541C75.5861 11.5116 75.3965 11.4904 75.2062 11.4909C75.017 11.4903 74.8284 11.5115 74.6441 11.5541C74.4699 11.5943 74.3012 11.6557 74.1419 11.737C73.9862 11.8172 73.8419 11.9179 73.7129 12.0364C73.5821 12.1561 73.469 12.2938 73.377 12.4454C73.2818 12.6031 73.2091 12.7733 73.1608 12.951C73.1082 13.1473 73.0825 13.3498 73.0843 13.553C73.0827 13.7539 73.1085 13.9542 73.1608 14.1483C73.209 14.326 73.2818 14.4961 73.377 14.6538C73.4684 14.8048 73.5816 14.9415 73.7129 15.0596C73.8434 15.177 73.9875 15.2786 74.1419 15.3622C74.3 15.4476 74.469 15.5114 74.6441 15.5518C74.8284 15.5945 75.017 15.6157 75.2062 15.615C75.3965 15.6156 75.5862 15.5944 75.7716 15.5518ZM73.7461 17.095C73.4381 17.0166 73.1418 16.8981 72.8648 16.7425C72.3251 16.439 71.8797 15.9925 71.5777 15.452C71.422 15.1726 71.3035 14.8741 71.2251 14.564C71.061 13.8977 71.061 13.2016 71.2251 12.5353C71.3031 12.2261 71.4217 11.9287 71.5777 11.6506C71.8811 11.1121 72.3263 10.667 72.8648 10.3635C73.1418 10.2079 73.4382 10.0893 73.7461 10.0109C74.0755 9.9274 74.4141 9.88605 74.7539 9.88788C74.9373 9.88747 75.1206 9.89857 75.3026 9.92114C75.4701 9.94186 75.6357 9.97522 75.7982 10.0209C75.9487 10.0636 76.0965 10.1159 76.2405 10.1772C76.3753 10.2346 76.5054 10.3024 76.6296 10.3801C76.7464 10.4532 76.8556 10.5379 76.9556 10.6329C77.0491 10.7216 77.1358 10.8172 77.215 10.9189V10.0874H79.124V17.0185H77.215V16.187C77.0929 16.3402 76.9534 16.4786 76.7992 16.5995C76.6288 16.7332 76.4422 16.845 76.2438 16.932C76.0232 17.0289 75.7922 17.1004 75.5554 17.1449C75.2912 17.1949 75.0227 17.2194 74.7538 17.2181C74.4141 17.2199 74.0755 17.1785 73.7461 17.095ZM66.8155 11.8435C67.089 11.8485 67.3619 11.8172 67.627 11.7503C67.8337 11.6981 68.0266 11.6017 68.1924 11.4676C68.3421 11.3428 68.4567 11.1812 68.525 10.9987C68.5995 10.7919 68.6355 10.5732 68.6315 10.3535C68.6357 10.1348 68.5996 9.9172 68.525 9.7116C68.4565 9.53105 68.3418 9.37164 68.1924 9.2493C68.0258 9.11726 67.8331 9.02205 67.627 8.96993C67.3618 8.90319 67.089 8.87188 66.8155 8.8768H64.9397V11.8435L66.8155 11.8435ZM62.9642 7.24048H67.0018C67.6359 7.24048 68.1858 7.31808 68.6514 7.47329C69.117 7.6285 69.5006 7.84357 69.8022 8.11851C70.1021 8.39111 70.3334 8.7307 70.4773 9.10962C70.6283 9.50907 70.7039 9.9331 70.7001 10.3601C70.7049 10.7862 70.6293 11.2093 70.4773 11.6073C70.3311 11.9831 70.1 12.32 69.8022 12.5918C69.5006 12.869 69.117 13.0852 68.6514 13.2403C68.1858 13.3957 67.6359 13.4733 67.0018 13.4731H64.9397V17.0185H62.9642V7.24048ZM54.481 10.0874H56.3767V10.9189C56.4937 10.7575 56.6325 10.6131 56.7891 10.4898C56.9549 10.3598 57.1358 10.2503 57.3279 10.1639C57.5396 10.0693 57.7618 10 57.9898 9.95771C58.2431 9.91008 58.5003 9.88669 58.758 9.88787C59.1594 9.88212 59.5584 9.94975 59.9354 10.0874C60.2713 10.2112 60.5757 10.4076 60.8267 10.6628C61.079 10.9272 61.2698 11.2441 61.3855 11.5907C61.519 11.9893 61.5842 12.4076 61.5784 12.8279V17.0185H59.6826V13.3202C59.6872 13.0498 59.649 12.7804 59.5696 12.5219C59.5038 12.3086 59.3939 12.1114 59.2469 11.9432C59.1057 11.7871 58.9289 11.6673 58.7314 11.594C58.5076 11.5131 58.271 11.4736 58.033 11.4776C57.794 11.4738 57.5563 11.5133 57.3313 11.594C57.1325 11.6666 56.9545 11.7865 56.8124 11.9432C56.6655 12.1114 56.5556 12.3086 56.4898 12.5219C56.4103 12.7804 56.3722 13.0498 56.3767 13.3202V17.0185H54.481V10.0874ZM49.816 15.5319C49.997 15.4881 50.1722 15.4234 50.3382 15.3389C50.496 15.2582 50.6407 15.1539 50.7672 15.0296C50.8924 14.907 51.0009 14.7683 51.0898 14.6172C51.1804 14.4616 51.2477 14.2935 51.2893 14.1183C51.3346 13.9288 51.3569 13.7345 51.3559 13.5396C51.357 13.3459 51.3347 13.1527 51.2893 12.9643C51.2055 12.617 51.0243 12.3009 50.7672 12.053C50.639 11.9298 50.4947 11.8246 50.3382 11.7404C50.1736 11.6521 49.998 11.5861 49.816 11.5441C49.6186 11.4988 49.4166 11.4765 49.214 11.4776C49.0137 11.4767 48.8139 11.499 48.6187 11.5441C48.4376 11.5857 48.2631 11.6517 48.0998 11.7404C47.9447 11.8252 47.8015 11.9303 47.6741 12.053C47.5487 12.1738 47.4421 12.3128 47.3582 12.4654C47.2724 12.6221 47.2054 12.7885 47.1586 12.961C47.1084 13.1497 47.0838 13.3444 47.0854 13.5397C47.0843 13.7349 47.1089 13.9295 47.1586 14.1184C47.2041 14.2923 47.2712 14.4599 47.3582 14.6172C47.4432 14.7691 47.5496 14.908 47.6741 15.0296C47.7998 15.1534 47.9433 15.2576 48.0998 15.339C48.2645 15.4237 48.4386 15.4885 48.6187 15.5319C48.8135 15.5792 49.0135 15.6026 49.214 15.6017C49.4167 15.6029 49.6189 15.5794 49.816 15.5319V15.5319ZM48.0965 17.0917C47.7545 17.0121 47.4229 16.8926 47.1087 16.7358C46.8132 16.5885 46.5391 16.4016 46.2939 16.1804C46.0563 15.9654 45.8503 15.718 45.6819 15.4454C45.5113 15.1679 45.3803 14.8679 45.2928 14.5541C45.111 13.89 45.111 13.1893 45.2928 12.5253C45.3799 12.2124 45.5109 11.9134 45.6819 11.6373C45.8515 11.3655 46.0574 11.1183 46.2939 10.9023C46.5384 10.6793 46.8126 10.4912 47.1087 10.3435C47.423 10.1868 47.7545 10.0673 48.0965 9.98766C48.8365 9.81915 49.6048 9.81915 50.3448 9.98766C50.6849 10.0666 51.0143 10.1861 51.3259 10.3435C51.6207 10.4934 51.8947 10.6813 52.1407 10.9023C52.3809 11.1175 52.5902 11.3648 52.7627 11.6373C52.9356 11.9128 53.0678 12.2119 53.1551 12.5253C53.3369 13.1893 53.3369 13.89 53.1551 14.5541C53.0674 14.8683 52.9352 15.1685 52.7627 15.4454C52.5914 15.7187 52.382 15.9662 52.1407 16.1804C51.894 16.3996 51.6202 16.5863 51.3259 16.7358C51.0153 16.893 50.6871 17.0124 50.3481 17.0917C49.607 17.2602 48.8376 17.2602 48.0965 17.0917ZM40.699 15.5319C40.88 15.4881 41.0553 15.4234 41.2212 15.3389C41.3791 15.2582 41.5238 15.1539 41.6502 15.0296C41.7755 14.907 41.884 14.7683 41.9728 14.6172C42.0635 14.4616 42.1308 14.2935 42.1724 14.1183C42.2176 13.9288 42.24 13.7345 42.2389 13.5396C42.2401 13.3459 42.2177 13.1527 42.1724 12.9643C42.0885 12.617 41.9074 12.3009 41.6502 12.053C41.5221 11.9298 41.3777 11.8246 41.2212 11.7404C41.0566 11.652 40.881 11.5861 40.699 11.5441C40.5016 11.4988 40.2996 11.4765 40.0971 11.4776C39.8967 11.4767 39.6969 11.499 39.5017 11.5441C39.3207 11.5857 39.1461 11.6517 38.9829 11.7404C38.8277 11.8252 38.6846 11.9303 38.5572 12.053C38.4317 12.1738 38.3252 12.3128 38.2412 12.4654C38.1555 12.6222 38.0885 12.7885 38.0417 12.9609C37.9914 13.1497 37.9668 13.3443 37.9685 13.5396C37.9674 13.7349 37.992 13.9295 38.0417 14.1183C38.0873 14.2923 38.1543 14.4598 38.2412 14.6172C38.3263 14.7691 38.4327 14.908 38.5572 15.0296C38.6829 15.1534 38.8264 15.2576 38.9829 15.3389C39.1475 15.4237 39.3217 15.4885 39.5017 15.5319C39.6966 15.5792 39.8965 15.6026 40.0971 15.6017C40.2998 15.6029 40.5019 15.5794 40.699 15.5319ZM38.9796 17.0917C38.6375 17.0121 38.306 16.8927 37.9918 16.7358C37.6963 16.5885 37.4221 16.4016 37.1769 16.1804C36.9394 15.9654 36.7334 15.718 36.565 15.4454C36.3943 15.1679 36.2634 14.8679 36.1759 14.5541C35.994 13.89 35.994 13.1893 36.1759 12.5253C36.263 12.2124 36.394 11.9134 36.565 11.6373C36.7346 11.3656 36.9405 11.1183 37.1769 10.9023C37.4215 10.6793 37.6957 10.4913 37.9918 10.3436C38.306 10.1868 38.6375 10.0674 38.9796 9.98769C39.7195 9.81918 40.4879 9.81918 41.2278 9.98769C41.5679 10.0666 41.8973 10.1861 42.209 10.3436C42.5038 10.4935 42.7777 10.6813 43.0238 10.9023C43.264 11.1175 43.4733 11.3648 43.6457 11.6373C43.8187 11.9128 43.9509 12.2119 44.0382 12.5253C44.22 13.1894 44.22 13.89 44.0382 14.5541C43.9505 14.8684 43.8183 15.1685 43.6457 15.4454C43.4745 15.7188 43.2651 15.9663 43.0238 16.1804C42.7771 16.3997 42.5032 16.5863 42.209 16.7358C41.8984 16.893 41.5701 17.0124 41.2312 17.0917C40.4901 17.2602 39.7206 17.2602 38.9796 17.0917ZM24.0171 7.24048H26.0126L29.4249 12.4554L32.8506 7.24048H34.8461V17.0185H32.8705V10.3136L30.0369 14.6372H28.8263L25.9927 10.3136V17.0185H24.0171V7.24048Z" fill="black"/>
<path d="M19.4604 8.99103C19.855 8.99103 20.2409 8.874 20.569 8.65473C20.8972 8.43546 21.153 8.1238 21.304 7.75917C21.455 7.39454 21.4945 6.9933 21.4175 6.60621C21.3405 6.21912 21.1505 5.86355 20.8714 5.58447C20.5923 5.3054 20.2368 5.11534 19.8497 5.03834C19.4626 4.96135 19.0614 5.00086 18.6967 5.1519C18.3321 5.30294 18.0204 5.55871 17.8012 5.88687C17.5819 6.21503 17.4649 6.60084 17.4649 6.99552C17.4648 7.25758 17.5164 7.51707 17.6167 7.75919C17.717 8.0013 17.864 8.22129 18.0493 8.4066C18.2346 8.5919 18.4546 8.73889 18.6967 8.83917C18.9388 8.93945 19.1983 8.99105 19.4604 8.99103ZM13.3416 17.9783C12.3796 17.9783 11.4392 17.6931 10.6393 17.1586C9.83939 16.6241 9.21595 15.8645 8.8478 14.9757C8.47965 14.0869 8.38332 13.1089 8.571 12.1653C8.75869 11.2218 9.22195 10.3551 9.9022 9.67483C10.5825 8.99458 11.4492 8.53132 12.3927 8.34364C13.3362 8.15596 14.3142 8.25229 15.203 8.62044C16.0918 8.9886 16.8515 9.61204 17.386 10.4119C17.9204 11.2118 18.2057 12.1523 18.2057 13.1143C18.2057 13.753 18.0799 14.3856 17.8355 14.9757C17.591 15.5658 17.2327 16.1021 16.7811 16.5537C16.3294 17.0054 15.7932 17.3637 15.203 17.6081C14.6129 17.8526 13.9804 17.9784 13.3416 17.9783Z" fill="#7D00FF"/>
</svg>
