<svg width="200" height="200" viewBox="0 0 200 200" fill="none" xmlns="http://www.w3.org/2000/svg">
<circle cx="100" cy="100" r="100" fill="#41B1BD"/>
<path d="M46.617 164.844C52.4832 164.844 57.2965 160.014 57.2965 154.127C57.2965 148.24 52.4832 143.41 46.617 143.41C40.7508 143.41 35.9375 148.24 35.9375 154.127C35.9375 160.014 40.7508 164.844 46.617 164.844Z" fill="white"/>
<path d="M154.164 57.3716C160.03 57.3716 164.844 52.5413 164.844 46.6545C164.844 40.7677 160.03 35.9375 154.164 35.9375C148.298 35.9375 143.485 40.7677 143.485 46.6545C143.334 52.5413 148.148 57.3716 154.164 57.3716Z" fill="white"/>
<path d="M69.4802 119.561C69.9315 119.108 70.0819 118.353 69.7811 117.749C66.6223 111.862 65.2686 104.919 65.8703 97.6736C67.5248 81.0698 80.9118 67.7867 97.4576 66.1263C104.678 65.3716 111.446 66.881 117.463 69.8999C118.065 70.2018 118.817 70.0508 119.268 69.598L130.549 58.2772C131.151 57.6734 131.151 56.4659 130.248 56.013C121.674 50.73 111.747 47.5602 101.068 47.5602C71.2852 47.5602 47.3691 71.5603 47.3691 101.296C47.3691 112.013 50.5279 122.127 56.0933 130.579C56.5445 131.334 57.7478 131.485 58.3495 130.73L69.4802 119.561Z" fill="white"/>
<path d="M131.602 81.2207C131.151 81.6735 131 82.4282 131.451 83.032C135.212 89.3717 137.167 96.7679 136.265 104.919C134.61 121.523 121.223 134.806 104.677 136.466C96.7054 137.221 89.1846 135.41 82.8672 131.636C82.2655 131.334 81.5134 131.334 81.0622 131.787L70.0818 142.806C69.4802 143.41 69.4802 144.617 70.2323 145.07C78.9564 151.259 89.6359 154.73 101.067 154.73C130.699 155.032 154.766 130.881 154.766 101.296C154.766 89.8245 151.156 79.1075 144.989 70.3527C144.387 69.598 143.334 69.598 142.733 70.2018L131.602 81.2207Z" fill="white"/>
</svg>
