<svg width="128" height="116" viewBox="0 0 128 116" fill="none" xmlns="http://www.w3.org/2000/svg">
<path d="M0.547852 30.2271L22.5492 79.4383L59.1579 115.645L22.7228 3.3374L0.547852 30.2271Z" fill="#1B1B1B"/>
<path d="M36.2744 0.349609L48.9449 39.7172L56.8664 42.5315L66.1973 13.0075L36.2744 0.349609Z" fill="#1B1B1B"/>
<path d="M127.453 37.4296L109.853 61.8585L69.5439 47.2732L80.9854 12.1205L112.137 4.21094L127.453 37.4296Z" fill="#1B1B1B"/>
<path d="M101.578 73.4625L72.8906 112.83L54.4092 56.4097L101.578 73.4625Z" fill="#1B1B1B"/>
<path d="M52.6455 16.869L56.8668 42.525L66.1976 13.001L52.6455 16.869Z" fill="#393939"/>
<path d="M48.9516 39.7172L56.8731 42.5315L52.6452 16.8689L36.2744 0.349609L48.9516 39.7172Z" fill="#585858"/>
<path d="M38.9199 53.0753L22.5492 79.4382L0.547852 30.2271L38.9199 53.0753Z" fill="#393939"/>
<path d="M80.9854 12.1274L95.5928 34.6222L69.5439 47.2735L80.9854 12.1274Z" fill="#585858"/>
<path d="M112.137 4.21777L95.5928 34.6221L80.9854 12.1273L112.137 4.21777Z" fill="#767676"/>
<path d="M109.853 61.8586L95.5928 34.6221L127.453 37.4364L109.853 61.8586Z" fill="#393939"/>
<path d="M73.9459 78.2042L72.8905 112.823L54.4092 56.4097L73.9459 78.2042Z" fill="#585858"/>
<path d="M72.8906 112.83L73.9459 78.2108L101.578 73.4624L72.8906 112.83Z" fill="#393939"/>
<path d="M59.1586 115.638L22.5498 79.4316L48.9527 84.3534L59.1586 115.638Z" fill="#1B1B1B"/>
<path d="M38.9205 53.0752L22.5498 79.4381L48.9527 84.3532L38.9205 53.0752Z" fill="#585858"/>
<path d="M0.547852 30.2271L38.9199 53.0754L22.7228 3.3374L0.547852 30.2271Z" fill="#1B1B1B"/>
<path d="M101.578 73.4625L73.9459 78.2042L54.4092 56.4097L101.578 73.4625Z" fill="#1B1B1B"/>
<path d="M69.5439 47.2733L109.853 61.8586L95.5929 34.6221L69.5439 47.2733Z" fill="#1B1B1B"/>
<path d="M127.453 37.4298L95.5928 34.6221L112.137 4.21777L127.453 37.4298Z" fill="#1B1B1B"/>
<path d="M36.2744 0.349609L66.1973 13.0009L52.6452 16.8689L36.2744 0.349609Z" fill="#1B1B1B"/>
</svg>
