<svg width="114" height="114" viewBox="0 0 114 114" fill="none" xmlns="http://www.w3.org/2000/svg">
<path d="M105.988 69.7245C105.991 74.4502 105.08 79.0595 103.274 83.4226C101.465 87.7924 98.854 91.6967 95.5183 95.0355C92.1727 98.3777 88.265 100.985 83.9017 102.791C79.545 104.593 74.9456 105.511 70.2331 105.511H70.2065H70.1998H70.0602C62.5108 105.511 55.0181 103.05 48.9453 98.5773C42.8327 94.0744 38.2399 87.5962 35.9552 80.117C34.9309 76.7448 34.4121 73.2563 34.4187 69.7379V43.3494C34.422 40.8352 35.3998 38.4741 37.179 36.6949C38.9583 34.919 41.3195 33.9413 43.8271 33.938C46.338 33.9446 48.6992 34.929 50.4752 36.7015C52.2478 38.4774 53.2288 40.8386 53.2355 43.3461V69.7279C53.2388 74.2573 55.0081 78.5207 58.2207 81.7232C60.6019 84.0977 63.605 85.6973 66.9041 86.3458C70.1998 87.0009 73.5887 86.6651 76.6982 85.3781C79.8044 84.0911 82.4351 81.9361 84.3074 79.1393C86.1831 76.3458 87.1775 73.0934 87.1842 69.7245V16.9709C87.1842 15.7304 87.4236 14.5166 87.8992 13.3693C88.3714 12.2253 89.0565 11.1977 89.9378 10.3197C90.8158 9.44508 91.8401 8.75669 92.9875 8.28113C95.2789 7.33667 97.8896 7.33334 100.184 8.28113C101.332 8.75669 102.356 9.44508 103.234 10.3197C104.112 11.1977 104.797 12.2253 105.273 13.3693C105.748 14.5166 105.988 15.7304 105.988 16.9709V69.7245ZM31.8346 31.3474C28.6287 34.5532 26.8594 38.8166 26.8561 43.3461V96.1031C26.8561 98.6139 25.8783 100.975 24.0991 102.754C20.5472 106.313 14.3481 106.313 10.793 102.754C9.01706 100.975 8.03931 98.6139 8.03931 96.1031V43.3494C8.04596 34.7727 11.1355 26.4754 16.7393 19.9838C22.3464 13.4923 30.102 9.22892 38.5858 7.97185C40.3318 7.71246 42.0844 7.58276 43.8304 7.58276C50.5716 7.58276 57.223 9.49164 62.9764 13.1332C65.6935 14.8525 68.1446 16.9177 70.2797 19.2589C70.2996 19.2389 70.3129 19.2156 70.3329 19.1957L70.3828 19.3852C73.8914 23.2662 76.5386 27.8954 78.0784 32.9702L78.2247 33.4524C79.1593 36.6716 79.6315 40.0005 79.6348 43.3461V69.7245C79.6348 71.5902 79.0861 73.396 78.0485 74.9457C77.0109 76.4954 75.5542 77.6926 73.8315 78.411C72.7107 78.8765 71.5268 79.096 70.3329 79.1093V79.126C70.2863 79.126 70.2431 79.1127 70.1965 79.1127C69.5979 79.1127 68.9959 79.0728 68.3973 78.953C68.0514 78.8865 67.7156 78.7801 67.383 78.6737V78.6271C67.1568 78.554 66.924 78.5174 66.7045 78.4243C64.9818 77.7059 63.5252 76.5087 62.4876 74.959C61.4499 73.406 60.9012 71.6002 60.9012 69.7379V45.8469H60.8946V43.3427C60.8879 41.0913 60.4489 38.8998 59.5876 36.8312C58.7229 34.7594 57.4757 32.9037 55.8827 31.3174C54.2897 29.7344 52.4273 28.5007 50.3455 27.646C48.2669 26.7913 46.0586 26.3324 43.8304 26.3723C39.3008 26.3756 35.0406 28.1448 31.8346 31.3474ZM108.572 4.97884C105.366 1.7763 101.109 0.0104134 96.5826 0.00376225H96.5759C92.0497 0.0170646 87.7961 1.78628 84.5968 4.98881C81.4041 8.19134 79.6415 12.4448 79.6348 16.9709V18.8764C74.8658 11.9093 68.1412 6.4554 60.2327 3.22293C50.3787 -0.794369 39.4239 -1.0704 29.3736 2.47467C20.8798 5.48764 13.6398 10.9682 8.43839 18.3244C3.23701 25.6839 0.483336 34.3371 0.476685 43.3461V96.1031C0.476685 100.636 2.24262 104.896 5.44859 108.102C8.65124 111.308 12.9148 113.073 17.4477 113.073C21.9806 113.073 26.2408 111.308 29.4468 108.102C32.6528 104.896 34.4187 100.636 34.4187 96.1031V94.2108C39.1911 101.175 45.909 106.629 53.8175 109.854C63.6649 113.872 74.6164 114.134 84.6633 110.599C93.1538 107.59 100.387 102.106 105.592 94.7495C110.79 87.39 113.544 78.7435 113.55 69.7379V16.9675C113.544 12.4414 111.774 8.1847 108.572 4.97884Z" fill="url(#paint0_linear_23_183)"/>
<defs>
<linearGradient id="paint0_linear_23_183" x1="-4.51185" y1="112.238" x2="112.902" y2="-13.5472" gradientUnits="userSpaceOnUse">
<stop offset="0.05" stop-color="white"/>
<stop offset="0.38" stop-color="#A7B3FF"/>
<stop offset="1" stop-color="#74A4FF"/>
</linearGradient>
</defs>
</svg>
