<?xml version="1.0" standalone="no"?>
<!DOCTYPE svg PUBLIC "-//W3C//DTD SVG 20010904//EN"
 "http://www.w3.org/TR/2001/REC-SVG-20010904/DTD/svg10.dtd">
<svg version="1.0" xmlns="http://www.w3.org/2000/svg"
 width="918.000000pt" height="918.000000pt" viewBox="0 0 918.000000 918.000000"
 preserveAspectRatio="xMidYMid meet">

<g transform="translate(0.000000,918.000000) scale(0.100000,-0.100000)"
fill="#000000" stroke="none">
<path d="M4260 9163 c-19 -1 -87 -8 -150 -14 -591 -55 -1240 -261 -1766 -561
-382 -217 -656 -423 -968 -728 -245 -240 -424 -456 -611 -740 -419 -634 -656
-1298 -741 -2080 -24 -211 -24 -685 -1 -900 85 -792 335 -1480 776 -2132 51
-76 94 -138 96 -138 2 0 36 55 76 123 239 404 503 744 838 1077 291 290 469
444 721 622 787 557 1666 888 2640 995 236 26 864 26 1100 0 137 -15 483 -70
594 -94 l29 -6 -6 121 c-59 1091 -865 1987 -1943 2158 -138 21 -444 29 -585
15 -570 -59 -1101 -326 -1477 -744 -435 -481 -643 -1105 -588 -1758 l8 -97
-119 -94 c-244 -195 -497 -427 -644 -592 -51 -58 -97 -102 -100 -98 -11 12
-66 198 -98 332 -66 279 -85 453 -85 760 0 281 13 424 64 668 59 289 150 549
287 824 232 464 569 867 990 1182 721 540 1644 764 2538 615 295 -49 593 -142
853 -264 l99 -47 569 367 c313 202 575 372 582 378 9 7 -19 31 -113 94 -645
430 -1384 687 -2170 753 -109 9 -611 12 -695 3z"/>
</g>
</svg>
