<?xml version="1.0" standalone="no"?>
<!DOCTYPE svg PUBLIC "-//W3C//DTD SVG 20010904//EN"
 "http://www.w3.org/TR/2001/REC-SVG-20010904/DTD/svg10.dtd">
<svg version="1.0" xmlns="http://www.w3.org/2000/svg"
 width="500.000000pt" height="500.000000pt" viewBox="0 0 500.000000 500.000000"
 preserveAspectRatio="xMidYMid meet">
<metadata>
Created by potrace 1.14, written by Peter Selinger 2001-2017
</metadata>
<g transform="translate(0.000000,500.000000) scale(0.100000,-0.100000)"
fill="#000000" stroke="none">
<path d="M2518 4916 c-1 -2 -66 -6 -143 -10 -118 -5 -270 -22 -350 -40 -17 -4
-79 -18 -135 -31 -135 -32 -367 -122 -508 -197 -238 -127 -416 -260 -607 -454
-98 -100 -109 -113 -210 -245 -232 -308 -395 -696 -449 -1069 -12 -83 -18
-137 -22 -179 -5 -66 -5 -329 0 -371 2 -19 7 -66 11 -105 3 -38 10 -88 15
-110 5 -22 12 -56 15 -75 20 -115 89 -346 140 -465 221 -519 620 -950 1117
-1207 157 -82 349 -156 503 -194 34 -8 165 -36 190 -40 48 -8 167 -24 205 -29
47 -5 357 -6 395 -1 17 2 62 7 100 11 39 3 88 10 110 15 22 5 56 11 75 14 19
3 50 10 68 15 18 5 35 10 37 10 14 1 66 15 120 31 218 65 456 177 649 307 409
276 726 671 905 1132 55 141 109 334 125 446 4 23 8 50 10 60 2 11 7 47 10 80
4 33 9 74 11 90 6 47 6 334 0 390 -19 177 -25 211 -50 325 -76 351 -228 673
-453 963 -262 335 -614 600 -1014 761 -76 30 -302 100 -363 112 -46 9 -133 24
-170 29 -22 4 -51 8 -65 11 -14 2 -74 6 -135 10 -60 3 -115 7 -122 9 -6 2 -13
2 -15 1z"/>
</g>
</svg>
