<?xml version="1.0" encoding="utf-8"?>
<!-- Generator: Adobe Illustrator 23.0.1, SVG Export Plug-In . SVG Version: 6.00 Build 0)  -->
<svg version="1.1" id="Layer_1" xmlns="http://www.w3.org/2000/svg" xmlns:xlink="http://www.w3.org/1999/xlink" x="0px" y="0px"
	 viewBox="0 0 97 24" style="enable-background:new 0 0 97 24;" xml:space="preserve">
<style type="text/css">
	.st0{fill:#FFFFFF;}
	.st1{fill:#7D00FF;}
</style>
<path class="st0" d="M83.1,17l-3-6.9h2l2,4.9l2.4-4.9h2l-4.7,9.5h-2L83.1,17z M75.8,15.6c0.2,0,0.3-0.1,0.5-0.2
	c0.2-0.1,0.3-0.2,0.4-0.3c0.1-0.1,0.2-0.3,0.3-0.4c0.1-0.2,0.2-0.3,0.2-0.5c0.1-0.2,0.1-0.4,0.1-0.6c0-0.2,0-0.4-0.1-0.6
	c-0.1-0.2-0.1-0.3-0.2-0.5c-0.1-0.2-0.2-0.3-0.3-0.4c-0.1-0.1-0.3-0.2-0.4-0.3c-0.2-0.1-0.3-0.1-0.5-0.2c-0.2,0-0.4-0.1-0.6-0.1
	c-0.2,0-0.4,0-0.6,0.1c-0.2,0-0.3,0.1-0.5,0.2c-0.2,0.1-0.3,0.2-0.4,0.3c-0.1,0.1-0.2,0.3-0.3,0.4c-0.1,0.2-0.2,0.3-0.2,0.5
	c-0.1,0.2-0.1,0.4-0.1,0.6c0,0.2,0,0.4,0.1,0.6c0,0.2,0.1,0.3,0.2,0.5c0.1,0.2,0.2,0.3,0.3,0.4c0.1,0.1,0.3,0.2,0.4,0.3
	c0.2,0.1,0.3,0.1,0.5,0.2c0.2,0,0.4,0.1,0.6,0.1C75.4,15.6,75.6,15.6,75.8,15.6z M73.7,17.1c-0.3-0.1-0.6-0.2-0.9-0.4
	c-0.5-0.3-1-0.8-1.3-1.3c-0.2-0.3-0.3-0.6-0.4-0.9c-0.2-0.7-0.2-1.4,0-2c0.1-0.3,0.2-0.6,0.4-0.9c0.3-0.5,0.7-1,1.3-1.3
	c0.3-0.2,0.6-0.3,0.9-0.4c0.3-0.1,0.7-0.1,1-0.1c0.2,0,0.4,0,0.5,0c0.2,0,0.3,0.1,0.5,0.1c0.2,0,0.3,0.1,0.4,0.2
	c0.1,0.1,0.3,0.1,0.4,0.2c0.1,0.1,0.2,0.2,0.3,0.3c0.1,0.1,0.2,0.2,0.3,0.3v-0.8h1.9V17h-1.9v-0.8c-0.1,0.2-0.3,0.3-0.4,0.4
	c-0.2,0.1-0.4,0.2-0.6,0.3c-0.2,0.1-0.5,0.2-0.7,0.2c-0.3,0.1-0.5,0.1-0.8,0.1C74.4,17.2,74.1,17.2,73.7,17.1z M66.8,11.8
	c0.3,0,0.5,0,0.8-0.1c0.2-0.1,0.4-0.1,0.6-0.3c0.1-0.1,0.3-0.3,0.3-0.5c0.1-0.2,0.1-0.4,0.1-0.6c0-0.2,0-0.4-0.1-0.6
	c-0.1-0.2-0.2-0.3-0.3-0.5C68,9.1,67.8,9,67.6,9c-0.3-0.1-0.5-0.1-0.8-0.1h-1.9v3H66.8z M63,7.2h4c0.6,0,1.2,0.1,1.6,0.2
	s0.8,0.4,1.2,0.6c0.3,0.3,0.5,0.6,0.7,1c0.2,0.4,0.2,0.8,0.2,1.3c0,0.4-0.1,0.8-0.2,1.2c-0.1,0.4-0.4,0.7-0.7,1
	c-0.3,0.3-0.7,0.5-1.2,0.6c-0.5,0.2-1,0.2-1.6,0.2h-2.1V17h-2V7.2z M54.5,10.1h1.9v0.8c0.1-0.2,0.3-0.3,0.4-0.4
	c0.2-0.1,0.3-0.2,0.5-0.3c0.2-0.1,0.4-0.2,0.7-0.2c0.3,0,0.5-0.1,0.8-0.1c0.4,0,0.8,0.1,1.2,0.2c0.3,0.1,0.6,0.3,0.9,0.6
	c0.3,0.3,0.4,0.6,0.6,0.9c0.1,0.4,0.2,0.8,0.2,1.2V17h-1.9v-3.7c0-0.3,0-0.5-0.1-0.8c-0.1-0.2-0.2-0.4-0.3-0.6
	c-0.1-0.2-0.3-0.3-0.5-0.3c-0.2-0.1-0.5-0.1-0.7-0.1c-0.2,0-0.5,0-0.7,0.1c-0.2,0.1-0.4,0.2-0.5,0.3c-0.1,0.2-0.3,0.4-0.3,0.6
	c-0.1,0.3-0.1,0.5-0.1,0.8V17h-1.9V10.1z M49.8,15.5c0.2,0,0.4-0.1,0.5-0.2c0.2-0.1,0.3-0.2,0.4-0.3c0.1-0.1,0.2-0.3,0.3-0.4
	c0.1-0.2,0.2-0.3,0.2-0.5c0-0.2,0.1-0.4,0.1-0.6c0-0.2,0-0.4-0.1-0.6c-0.1-0.3-0.3-0.7-0.5-0.9c-0.1-0.1-0.3-0.2-0.4-0.3
	c-0.2-0.1-0.3-0.2-0.5-0.2c-0.2,0-0.4-0.1-0.6-0.1c-0.2,0-0.4,0-0.6,0.1c-0.2,0-0.4,0.1-0.5,0.2c-0.2,0.1-0.3,0.2-0.4,0.3
	c-0.1,0.1-0.2,0.3-0.3,0.4c-0.1,0.2-0.2,0.3-0.2,0.5c-0.1,0.2-0.1,0.4-0.1,0.6c0,0.2,0,0.4,0.1,0.6c0,0.2,0.1,0.3,0.2,0.5
	c0.1,0.2,0.2,0.3,0.3,0.4c0.1,0.1,0.3,0.2,0.4,0.3c0.2,0.1,0.3,0.1,0.5,0.2c0.2,0,0.4,0.1,0.6,0.1C49.4,15.6,49.6,15.6,49.8,15.5
	L49.8,15.5z M48.1,17.1c-0.3-0.1-0.7-0.2-1-0.4c-0.3-0.1-0.6-0.3-0.8-0.6c-0.2-0.2-0.4-0.5-0.6-0.7c-0.2-0.3-0.3-0.6-0.4-0.9
	c-0.2-0.7-0.2-1.4,0-2c0.1-0.3,0.2-0.6,0.4-0.9c0.2-0.3,0.4-0.5,0.6-0.7c0.2-0.2,0.5-0.4,0.8-0.6c0.3-0.2,0.6-0.3,1-0.4
	c0.7-0.2,1.5-0.2,2.2,0c0.3,0.1,0.7,0.2,1,0.4c0.3,0.1,0.6,0.3,0.8,0.6c0.2,0.2,0.4,0.5,0.6,0.7c0.2,0.3,0.3,0.6,0.4,0.9
	c0.2,0.7,0.2,1.4,0,2c-0.1,0.3-0.2,0.6-0.4,0.9c-0.2,0.3-0.4,0.5-0.6,0.7c-0.2,0.2-0.5,0.4-0.8,0.6c-0.3,0.2-0.6,0.3-1,0.4
	C49.6,17.3,48.8,17.3,48.1,17.1z M40.7,15.5c0.2,0,0.4-0.1,0.5-0.2c0.2-0.1,0.3-0.2,0.4-0.3c0.1-0.1,0.2-0.3,0.3-0.4
	c0.1-0.2,0.2-0.3,0.2-0.5c0-0.2,0.1-0.4,0.1-0.6c0-0.2,0-0.4-0.1-0.6c-0.1-0.3-0.3-0.7-0.5-0.9c-0.1-0.1-0.3-0.2-0.4-0.3
	c-0.2-0.1-0.3-0.2-0.5-0.2c-0.2,0-0.4-0.1-0.6-0.1c-0.2,0-0.4,0-0.6,0.1c-0.2,0-0.4,0.1-0.5,0.2c-0.2,0.1-0.3,0.2-0.4,0.3
	c-0.1,0.1-0.2,0.3-0.3,0.4c-0.1,0.2-0.2,0.3-0.2,0.5C38,13.1,38,13.3,38,13.5c0,0.2,0,0.4,0.1,0.6c0,0.2,0.1,0.3,0.2,0.5
	c0.1,0.2,0.2,0.3,0.3,0.4c0.1,0.1,0.3,0.2,0.4,0.3c0.2,0.1,0.3,0.1,0.5,0.2c0.2,0,0.4,0.1,0.6,0.1C40.3,15.6,40.5,15.6,40.7,15.5z
	 M39,17.1c-0.3-0.1-0.7-0.2-1-0.4c-0.3-0.1-0.6-0.3-0.8-0.6c-0.2-0.2-0.4-0.5-0.6-0.7c-0.2-0.3-0.3-0.6-0.4-0.9
	c-0.2-0.7-0.2-1.4,0-2c0.1-0.3,0.2-0.6,0.4-0.9c0.2-0.3,0.4-0.5,0.6-0.7c0.2-0.2,0.5-0.4,0.8-0.6c0.3-0.2,0.6-0.3,1-0.4
	c0.7-0.2,1.5-0.2,2.2,0c0.3,0.1,0.7,0.2,1,0.4c0.3,0.1,0.6,0.3,0.8,0.6c0.2,0.2,0.4,0.5,0.6,0.7c0.2,0.3,0.3,0.6,0.4,0.9
	c0.2,0.7,0.2,1.4,0,2c-0.1,0.3-0.2,0.6-0.4,0.9c-0.2,0.3-0.4,0.5-0.6,0.7c-0.2,0.2-0.5,0.4-0.8,0.6c-0.3,0.2-0.6,0.3-1,0.4
	C40.5,17.3,39.7,17.3,39,17.1z M24,7.2h2l3.4,5.2l3.4-5.2h2V17h-2v-6.7L30,14.6h-1.2L26,10.3V17h-2V7.2z"/>
<path class="st1" d="M19.5,9c0.4,0,0.8-0.1,1.1-0.3c0.3-0.2,0.6-0.5,0.7-0.9c0.2-0.4,0.2-0.8,0.1-1.2c-0.1-0.4-0.3-0.7-0.5-1
	c-0.3-0.3-0.6-0.5-1-0.5c-0.4-0.1-0.8,0-1.2,0.1c-0.4,0.2-0.7,0.4-0.9,0.7c-0.2,0.3-0.3,0.7-0.3,1.1c0,0.3,0.1,0.5,0.2,0.8
	C17.7,8,17.9,8.2,18,8.4c0.2,0.2,0.4,0.3,0.6,0.4C18.9,8.9,19.2,9,19.5,9z M13.3,18c-1,0-1.9-0.3-2.7-0.8c-0.8-0.5-1.4-1.3-1.8-2.2
	c-0.4-0.9-0.5-1.9-0.3-2.8c0.2-0.9,0.7-1.8,1.3-2.5c0.7-0.7,1.5-1.1,2.5-1.3c0.9-0.2,1.9-0.1,2.8,0.3c0.9,0.4,1.6,1,2.2,1.8
	c0.5,0.8,0.8,1.7,0.8,2.7c0,0.6-0.1,1.3-0.4,1.9c-0.2,0.6-0.6,1.1-1.1,1.6c-0.5,0.5-1,0.8-1.6,1.1C14.6,17.9,14,18,13.3,18z"/>
</svg>
