<svg width="167" height="32" viewBox="0 0 167 32" fill="none" xmlns="http://www.w3.org/2000/svg">
<path fill-rule="evenodd" clip-rule="evenodd" d="M92.3848 8.75249C92.7967 8.21286 93.4364 7.89609 94.115 7.89609H99.1712L91.8106 16.8869L99.1712 25.8805H94.0879C93.407 25.8805 92.7658 25.5622 92.3543 25.02L87.4396 18.5416V25.8805H83.5861C82.8457 25.8805 82.2456 25.2805 82.2456 24.5402V3.20086C82.2456 2.46063 82.8457 1.86035 83.5861 1.86035H87.4396V15.2352L92.3848 8.75249ZM72.4436 7.44179C70.3562 7.44179 68.6874 8.37137 67.5741 9.67989V7.89596H63.7207C62.9804 7.89596 62.3802 8.49623 62.3802 9.23672V24.5401C62.3802 25.2803 62.9804 25.8806 63.7207 25.8806H67.5741V15.2328C67.5741 13.4473 68.8401 12.1488 70.6906 12.1488C72.5735 12.1488 73.5471 13.1551 73.5471 15.3625V25.8806H77.4008C78.1413 25.8806 78.7413 25.2803 78.7413 24.5401V13.8693C78.7413 9.84416 76.3392 7.44179 72.4436 7.44179ZM126.247 8.79595L122.632 19.1769L119.018 8.79595C118.83 8.25734 118.322 7.89605 117.752 7.89605H113.153L119.938 25.3938L117.178 32.0001H121.339C121.934 32.0001 122.469 31.637 122.688 31.0839L131.884 7.89605H127.513C126.943 7.89605 126.435 8.25734 126.247 8.79595ZM163.176 21.5954C161.373 21.5954 160.547 20.7692 160.547 18.9666V12.1814H164.739C165.48 12.1814 166.08 11.5812 166.08 10.8409V7.89611H160.547V2.59728H156.888C156.148 2.59728 155.548 3.19755 155.548 3.93753V7.89611H154.324C153.583 7.89611 152.983 8.49639 152.983 9.23662V12.1814H155.515V19.2913C155.515 23.5956 157.945 25.8805 161.925 25.8805H164.906C165.646 25.8805 166.247 25.2803 166.247 24.5403V21.5954H163.176ZM50.7971 11.5319C48.8108 11.5319 47.0893 12.9604 46.5927 14.97H54.2734C54.2404 12.8957 52.7505 11.5319 50.7971 11.5319ZM41.6267 16.9535C41.6267 11.2399 45.7319 7.44179 50.8304 7.44179C55.4982 7.44179 59.3054 10.5905 59.3054 16.5961C59.3054 16.8814 59.299 17.1539 59.2836 17.4364C59.2473 18.0957 58.6895 18.6121 58.0158 18.6121H46.6919C47.3871 20.9139 49.4177 21.5956 52.1985 21.5956H58.1342V24.5401C58.1342 25.2803 57.5342 25.8806 56.794 25.8806H51.5363C45.0807 25.8806 41.6267 22.4072 41.6267 16.9535ZM142.733 21.6587C140.331 21.6587 138.578 19.6785 138.578 16.8872C138.578 14.0954 140.331 12.1152 142.766 12.1152C145.2 12.1152 146.985 14.0954 146.985 16.8547C146.985 19.6138 145.2 21.6587 142.733 21.6587ZM144.194 7.44097C141.821 7.44097 139.856 8.57883 138.643 10.186V7.8954H134.79C134.049 7.8954 133.45 8.49542 133.45 9.23565V30.6569C133.45 31.3974 134.05 31.9972 134.79 31.9972H138.643V23.2495C139.747 25.0994 141.954 26.333 144.291 26.333C148.511 26.333 152.244 22.665 152.244 16.887C152.244 11.1414 148.381 7.44097 144.194 7.44097ZM106.011 9.84428C107.147 8.56237 108.113 7.64225 110.339 7.64225C112.182 7.64225 112.291 8.49635 112.291 9.23659V12.1453C108.363 11.5358 106.011 12.7643 106.011 16.1402V25.8805H102.158C101.417 25.8805 100.817 25.2805 100.817 24.5402V9.23659C100.817 8.49635 101.417 7.89608 102.158 7.89608H106.011V9.84428Z" fill="#684CFF"/>
<path fill-rule="evenodd" clip-rule="evenodd" d="M0 5.80239C0 2.5976 2.59786 0 5.80239 0H30.1531V4.45216C30.1531 6.75551 28.286 8.6226 25.9827 8.6226H14.534C11.3292 8.6226 8.7316 11.2205 8.7316 14.4252V15.9016C8.7316 19.1064 11.3292 21.704 14.534 21.704H25.9827C28.286 21.704 30.1531 23.5714 30.1531 25.8747V30.1534H5.80239C2.59786 30.1534 0 27.5553 0 24.3507V5.80239ZM14.7845 11.0492H26.5267C28.5297 11.0492 30.1532 12.6729 30.1532 14.6756V15.651C30.1532 17.654 28.5297 19.2777 26.5267 19.2777H14.7845C12.7816 19.2777 11.1578 17.654 11.1578 15.651V14.6756C11.1578 12.6729 12.7816 11.0492 14.7845 11.0492Z" fill="url(#paint0_linear_84_260)"/>
<defs>
<linearGradient id="paint0_linear_84_260" x1="15.0766" y1="30.1534" x2="-0.000242856" y2="0.00012143" gradientUnits="userSpaceOnUse">
<stop stop-color="#704BFF"/>
<stop offset="1" stop-color="#C549FF"/>
</linearGradient>
</defs>
</svg>
