<svg width="103" height="32" viewBox="0 0 103 32" fill="none" xmlns="http://www.w3.org/2000/svg">
<g clip-path="url(#clip0_231_321)">
<path d="M9.86313 31.9999C6.96221 31.9999 4.56634 31.042 2.74231 29.1509C0.922451 27.268 0 24.7163 0 21.57V20.9176C0 18.8324 0.409051 16.9413 1.2188 15.298C2.02856 13.6464 3.18058 12.3375 4.64147 11.4002C6.10237 10.4629 7.70935 9.98804 9.42069 9.98804C12.2131 9.98804 14.4128 10.9129 15.9697 12.7421C17.514 14.5547 18.2946 17.1767 18.2946 20.5336V22.2513H4.08633C4.17816 24.1176 4.76252 25.6495 5.82688 26.8056C6.92882 28.0071 8.35632 28.6182 10.0593 28.6182C11.2781 28.6182 12.3174 28.3705 13.1564 27.8833C14.0037 27.3919 14.7592 26.7271 15.3937 25.9096L15.5439 25.7196L18.1068 27.6933L17.9857 27.8791C16.1867 30.6126 13.4569 31.9999 9.8673 31.9999H9.86313ZM14.2166 18.8531V18.8242C14.1164 17.0982 13.6406 15.7356 12.8016 14.7901C11.9626 13.8446 10.8565 13.3862 9.41651 13.3862C7.97649 13.3862 6.87873 13.8858 5.94793 14.8727C5.0547 15.8224 4.47451 17.1602 4.22407 18.8489H14.2124L14.2166 18.8531Z" fill="#091E41"/>
<path d="M9.86322 31.7605C7.01657 31.7605 4.70418 30.8356 2.91771 28.9899C1.13125 27.1442 0.242188 24.6668 0.242188 21.57V20.9176C0.242188 18.8572 0.638716 17.0198 1.43595 15.4012C2.23318 13.7827 3.34346 12.5192 4.77096 11.6025C6.19847 10.69 7.74701 10.2317 9.41661 10.2317C12.1464 10.2317 14.2668 11.1194 15.7778 12.899C17.2887 14.6787 18.0484 17.2221 18.0484 20.5336V22.0118H3.83182C3.8819 24.0598 4.48713 25.7114 5.64333 26.9708C6.79952 28.2301 8.27294 28.8619 10.0552 28.8619C11.3241 28.8619 12.3968 28.6059 13.2734 28.0939C14.1541 27.5819 14.9221 26.9047 15.5816 26.0583L17.7729 27.747C16.0157 30.4227 13.3777 31.7563 9.85905 31.7563L9.86322 31.7605ZM9.41661 13.1509C7.96824 13.1509 6.7536 13.6712 5.76854 14.7158C4.78766 15.7605 4.17826 17.218 3.94451 19.1008H14.4546V18.8325C14.3503 17.0281 13.8577 15.6325 12.9812 14.6415C12.1005 13.6505 10.9109 13.155 9.41243 13.155L9.41661 13.1509Z" fill="white"/>
<path d="M28.3289 31.9999C26.6593 31.9999 25.3738 31.4879 24.5139 30.4763C23.6666 29.4771 23.2367 28.0485 23.2367 26.2358V13.6051H19.4175V10.3803H23.2367V5.34705H27.3105V10.3721H31.2299V13.5969H27.3105V26.2441C27.3105 27.0162 27.4691 27.5943 27.778 27.9618C28.0785 28.3168 28.6128 28.4985 29.3766 28.4985C29.7731 28.4985 30.3283 28.4242 31.0337 28.2714L31.33 28.2095V31.554L31.1506 31.6036C30.1905 31.8637 29.243 31.9917 28.3331 31.9917L28.3289 31.9999Z" fill="#091E41"/>
<path d="M27.0682 5.59058V10.6156H30.9876V13.3573H27.0682V26.2481C27.0682 27.0822 27.2436 27.7057 27.59 28.1227C27.9406 28.5397 28.5333 28.7462 29.3765 28.7462C29.7897 28.7462 30.3574 28.6677 31.0836 28.515V31.3764C30.1403 31.6324 29.222 31.7563 28.3288 31.7563C26.726 31.7563 25.5155 31.2773 24.7016 30.3152C23.8877 29.3573 23.4786 27.9947 23.4786 26.2275V13.3532H19.6594V10.6115H23.4786V5.59058H27.0682Z" fill="white"/>
<path d="M47.8464 31.6159V17.6392C47.8339 16.2147 47.5083 15.1535 46.8739 14.4846C46.2478 13.8239 45.2377 13.4854 43.8812 13.4854C42.775 13.4854 41.79 13.7785 40.9594 14.3607C40.1329 14.9388 39.4776 15.7027 39.0059 16.6358V31.6118H34.9321V1.66394H39.0059V12.4861C40.5795 10.8304 42.583 9.98807 44.9706 9.98807C49.5452 9.98807 51.8869 12.5687 51.9244 17.6516V31.6118H47.8506L47.8464 31.6159Z" fill="#091E41"/>
<path d="M38.7637 13.1302C40.354 11.1978 42.4243 10.2316 44.9704 10.2316C49.4032 10.2316 51.6405 12.7049 51.6822 17.6556V31.3722H48.0926V17.6391C48.0801 16.1444 47.7336 15.0378 47.0533 14.3193C46.3729 13.605 45.3169 13.2458 43.881 13.2458C42.7165 13.2458 41.6939 13.5513 40.8173 14.1666C39.9366 14.7818 39.2521 15.587 38.7595 16.5821V31.3764H35.1699V1.90747H38.7595V13.1302H38.7637Z" fill="white"/>
<path d="M94.6534 0L86.0758 20.3355L80.7916 7.88645L78.3164 13.3368L86.08 31.616L93.756 13.6423L98.026 29.8942H102.588L94.6534 0Z" fill="#0066FF"/>
<path d="M74.5474 2.08508L66.2078 20.5584L57.9308 2.08508H53.0347L66.1577 31.4384L79.481 2.08508H74.5474Z" fill="#0066FF"/>
</g>
<defs>
<clipPath id="clip0_231_321">
<rect width="102.588" height="32" fill="white"/>
</clipPath>
</defs>
</svg>
