<svg width="236" height="211" viewBox="0 0 236 211" fill="none" xmlns="http://www.w3.org/2000/svg">
<path d="M0.89502 210.114V165.319H7.75058V183.936H8.81044C11.5965 180.854 17.1418 174.65 25.4552 165.319H34.4305C31.0631 169.028 24.3551 176.379 14.2976 187.372C17.7857 191.161 24.7486 198.74 35.1773 210.114H25.889C23.0627 206.947 17.3698 200.617 8.81044 191.121H7.75058V210.114H0.89502Z" fill="#0B1D2E"/>
<path d="M37.0449 210.114C39.1646 202.66 43.4041 187.725 49.7588 165.319H61.9137C64.0334 172.773 68.2728 187.708 74.6275 210.114H67.5215C67.0207 208.367 66.0458 204.846 64.5924 199.556H47.0801C46.6239 201.303 45.6446 204.824 44.1509 210.114H37.0449ZM48.8241 193.181H62.8483C61.7661 189.226 59.6061 181.374 56.3684 169.629H55.3085C54.2263 173.544 52.0663 181.396 48.8286 193.181H48.8241Z" fill="#0B1D2E"/>
<path d="M78.9989 210.114V165.319H96.8869C102.83 165.319 107.378 166.842 110.535 169.879C113.733 172.921 115.334 177.481 115.334 183.56V191.932C115.334 198.055 113.733 202.615 110.535 205.612C107.378 208.609 102.826 210.109 96.8869 210.109H78.9989V210.114ZM85.9797 203.865H96.9495C100.813 203.865 103.68 202.888 105.554 200.931C107.423 198.933 108.358 195.995 108.358 192.12V183.309C108.358 179.394 107.423 176.478 105.554 174.56C103.684 172.648 100.818 171.689 96.9495 171.689H85.9797V203.865Z" fill="#0B1D2E"/>
<path d="M123.123 210.114V165.319H151.234V171.631H129.979V184.438H149.49V190.749H129.979V203.869H151.547V210.118H123.123V210.114Z" fill="#0B1D2E"/>
<path d="M158.784 210.114V165.319H172.062C174.056 172.025 178.086 185.414 184.154 205.491H185.214V165.319H192.007V210.114H178.73C176.735 203.408 172.706 189.997 166.637 169.879H165.577V210.114H158.784Z" fill="#0B1D2E"/>
<path d="M198.044 210.114C200.164 202.66 204.404 187.725 210.758 165.319H222.913C225.033 172.773 229.272 187.708 235.627 210.114H228.521C228.02 208.367 227.045 204.846 225.592 199.556H208.08C207.623 201.303 206.644 204.824 205.15 210.114H198.044ZM209.824 193.181H223.848C222.766 189.226 220.606 181.374 217.368 169.629H216.308C215.226 173.544 213.066 181.396 209.828 193.181H209.824Z" fill="#0B1D2E"/>
<path d="M190.814 139.662H140.238L140.205 139.637L139.806 139.33L77.1288 90.406L102.782 69.8307L190.391 139.33L190.814 139.662Z" fill="#4A9079"/>
<path d="M190.814 0H140.238L140.205 0.0249398L139.806 0.33253L77.1288 49.256L102.782 69.8314L190.391 0.33253L190.814 0Z" fill="#4A9079"/>
<path d="M77.1375 72.9322V90.3568V90.415L77.1458 139.33V139.663L77.1126 139.638L76.7225 139.33L46.2221 115.222L46.1474 115.164L45.7075 114.823V24.84L46.1474 24.4992L46.2221 24.441L76.7225 0.33253L77.1126 0.0249398L77.1458 0V0.33253L77.1375 49.2477V49.3059V69.8314V72.9322Z" fill="#4A9079"/>
</svg>
